<?xml version="1.0" encoding="UTF-8"?>
<svg version="1.1" xmlns="http://www.w3.org/2000/svg" width="225" height="225">
<path d="M0 0 C74.25 0 148.5 0 225 0 C225 74.25 225 148.5 225 225 C150.75 225 76.5 225 0 225 C0 150.75 0 76.5 0 0 Z " fill="#050A30" transform="translate(0,0)"/>
<path d="M0 0 C-0.1401998 3.35442664 -0.28818428 6.70846775 -0.4375 10.0625 C-0.47681641 11.00544922 -0.51613281 11.94839844 -0.55664062 12.91992188 C-0.59853516 13.84482422 -0.64042969 14.76972656 -0.68359375 15.72265625 C-0.73858032 16.98734741 -0.73858032 16.98734741 -0.79467773 18.27758789 C-1.04114457 21.54554474 -1.53570855 24.75616519 -2 28 C-2.41999284 32.74387743 -2.70295765 37.49703856 -3 42.25 C-3.04457336 42.93775513 -3.08914673 43.62551025 -3.1350708 44.33410645 C-3.67406703 52.71149672 -4.06454892 61.07486799 -4.2109375 69.46875 C-4.22602356 70.24724304 -4.24110962 71.02573608 -4.25665283 71.82781982 C-4.32768107 75.59290611 -4.37836115 79.35635139 -4.39453125 83.12207031 C-4.56607903 98.05999801 -8.23591377 108.13788149 -18.74609375 118.765625 C-20.3125 120.1875 -20.3125 120.1875 -23 122 C-23.99 121.67 -24.98 121.34 -26 121 C-26.76782227 119.19335938 -26.76782227 119.19335938 -27.31640625 116.84375 C-27.52330078 115.98523438 -27.73019531 115.12671875 -27.94335938 114.2421875 C-28.14767578 113.33726562 -28.35199219 112.43234375 -28.5625 111.5 C-28.87477539 110.18902344 -28.87477539 110.18902344 -29.19335938 108.8515625 C-29.811882 106.23786815 -30.40650966 103.6194753 -31 101 C-31.19706543 100.17306641 -31.39413086 99.34613281 -31.59716797 98.49414062 C-31.78037598 97.71232422 -31.96358398 96.93050781 -32.15234375 96.125 C-32.31597412 95.43664062 -32.47960449 94.74828125 -32.64819336 94.0390625 C-33.16942422 91.01802146 -33.01561018 88.08124954 -32.93359375 85.02734375 C-33.0384841 80.24557786 -33.71880078 75.53457268 -34.37695312 70.80078125 C-34.81979353 67.45351863 -35.08291229 65.24873686 -34 62 C-35.95102514 52.9054576 -41.19444481 43.6630755 -48.62890625 37.99609375 C-51 36 -51 36 -51.83813477 33.54882812 C-53.77161855 29.30727092 -57.0432364 28.57196325 -61.23339844 26.97705078 C-67.83393072 25.26488263 -74.37890251 25.2980742 -81.1640625 25.40307617 C-83.62875929 25.43755259 -86.08988681 25.42363729 -88.5546875 25.40429688 C-98.57660805 25.41402199 -106.45977917 26.30651945 -115 32 C-115.47373047 33.19109375 -115.47373047 33.19109375 -115.95703125 34.40625 C-117.1285696 37.31973863 -118.33438198 38.46587047 -120.6875 40.5 C-126.25654543 45.9061483 -131.32573233 52.88861603 -132.36328125 60.75390625 C-132.32901706 62.52246547 -132.24442581 64.29066458 -132.11328125 66.0546875 C-131.93109265 70.79159115 -132.81896642 75.36351145 -133.5625 80.03125 C-133.91144246 83.19665657 -133.95709508 85.92832005 -133.84375 89.08203125 C-133.77623567 96.09508213 -135.62573227 102.47559528 -137.5 109.1875 C-137.83386719 110.42564453 -138.16773438 111.66378906 -138.51171875 112.93945312 C-139.32894597 115.96319384 -140.15853334 118.9829328 -141 122 C-148.45514973 120.30014125 -152.59678644 114.60939596 -156.640625 108.44140625 C-159.9996355 102.40870061 -161.45044251 97.59700216 -161.625 90.67578125 C-161.6569899 89.87244354 -161.6889798 89.06910583 -161.72193909 88.24142456 C-161.79015722 86.50559344 -161.85255418 84.76952563 -161.90969849 83.03329468 C-162.0652495 78.34652543 -162.26680342 73.66169749 -162.46484375 68.9765625 C-162.525261 67.5145768 -162.525261 67.5145768 -162.5868988 66.02305603 C-163.05449347 55.065062 -163.79400912 44.12787342 -164.5625 33.1875 C-164.62671143 32.26442047 -164.69092285 31.34134094 -164.75708008 30.39028931 C-165.46279686 20.25693469 -166.20178782 10.1265205 -167 0 C-159.28979349 -4.72926207 -151.53166796 -8.8182509 -143.1875 -12.3125 C-142.41237061 -12.63734375 -141.63724121 -12.9621875 -140.83862305 -13.296875 C-132.71338236 -16.62888905 -124.58271643 -19.26243133 -116 -21.125 C-115.2575 -21.29386719 -114.515 -21.46273438 -113.75 -21.63671875 C-75.72154479 -30.02146495 -32.45550514 -21.3122454 0 0 Z " fill="#F66212" transform="translate(196,39)"/>
<path d="M0 0 C4.86115742 0.41667064 6.76394421 2.50156131 10 6 C10.99 6.495 10.99 6.495 12 7 C11.505 4.525 11.505 4.525 11 2 C15.94387949 6.35006156 17.37688842 13.64426188 18 20 C18.07210087 24.00159839 18.0582769 27.99831948 18 32 C17.01 30.515 17.01 30.515 16 29 C17.1704782 33.77318863 18.40739 38.51437138 19.7512207 43.24145508 C21.73725947 50.23339978 23.61650559 57.24430778 25.3125 64.3125 C25.48378418 65.01109131 25.65506836 65.70968262 25.83154297 66.42944336 C26.67815163 70.03127427 27.13983224 73.30443367 27 77 C27.45219512 79.86390246 28.14359903 82.43079709 29.0625 85.1875 C30.21554861 89.87656434 30.17382323 94.20054751 30 99 C25.14032976 96.49653351 21.72143296 92.91447559 18 89 C17.81824219 89.93972656 17.81824219 89.93972656 17.6328125 90.8984375 C17.46523437 91.71570313 17.29765625 92.53296875 17.125 93.375 C16.96257812 94.18710938 16.80015625 94.99921875 16.6328125 95.8359375 C16 98 16 98 14 100 C13.32059533 102.42715206 13.32059533 102.42715206 12.875 105.125 C12.70742187 106.03507812 12.53984375 106.94515625 12.3671875 107.8828125 C12.18542969 108.93082031 12.18542969 108.93082031 12 110 C10.68 110 9.36 110 8 110 C6.68 106.7 5.36 103.4 4 100 C3.01 100.495 3.01 100.495 2 101 C1.731875 100.195625 1.46375 99.39125 1.1875 98.5625 C0.5996875 97.2940625 0.5996875 97.2940625 0 96 C-1.485 95.505 -1.485 95.505 -3 95 C-5.76591425 91.42058156 -7.46864683 88.51650194 -8 84 C-8.0825 85.19625 -8.165 86.3925 -8.25 87.625 C-8.96436531 94.2888555 -11.04707014 100.61437353 -13 107 C-13.66 107 -14.32 107 -15 107 C-15.39832031 106.18595703 -15.39832031 106.18595703 -15.8046875 105.35546875 C-16.15789062 104.64003906 -16.51109375 103.92460937 -16.875 103.1875 C-17.22304687 102.47980469 -17.57109375 101.77210938 -17.9296875 101.04296875 C-19.0656486 98.78753582 -19.0656486 98.78753582 -21 96 C-21.66 95.01 -22.32 94.02 -23 93 C-23.495 94.98 -23.495 94.98 -24 97 C-25.32 95.68 -26.64 94.36 -28 93 C-27.81824219 92.40574219 -27.63648438 91.81148438 -27.44921875 91.19921875 C-27.19785156 90.37035156 -26.94648437 89.54148437 -26.6875 88.6875 C-26.40777344 87.77484375 -26.12804687 86.8621875 -25.83984375 85.921875 C-25.29633396 84.03096652 -24.80542636 82.12380675 -24.37890625 80.203125 C-21.73247703 68.5654114 -13.96318816 61.72460314 -5.6237793 53.69604492 C-4.72912964 52.82749878 -4.72912964 52.82749878 -3.81640625 51.94140625 C-3.27443604 51.42263916 -2.73246582 50.90387207 -2.17407227 50.36938477 C-0.7830361 49.04757489 -0.7830361 49.04757489 -1 47 C-3.25263415 48.74669493 -5.5021279 50.49719497 -7.75 52.25 C-8.70132813 52.98669922 -8.70132813 52.98669922 -9.671875 53.73828125 C-12.98687432 56.32812447 -16.10592764 58.93052932 -19 62 C-19 61.01 -19 60.02 -19 59 C-22.05050564 65.75005502 -24.00143186 72.50131907 -25.51660156 79.72851562 C-25.91758685 81.50933677 -26.44921008 83.2596714 -27 85 C-27.99 85.33 -28.98 85.66 -30 86 C-33.3537904 81.55588268 -34.77750353 77.78045775 -35.625 72.25 C-36.24744596 67.15746135 -36.24744596 67.15746135 -39 63 C-39.72832031 62.25105469 -40.45664063 61.50210938 -41.20703125 60.73046875 C-44.24729937 57.7582346 -47.42196985 55.03069327 -50.6875 52.3125 C-56.77533784 47.22466216 -56.77533784 47.22466216 -59 45 C-57.69591488 48.84412222 -56.22682767 51.10075241 -53.26171875 53.85546875 C-52.52373047 54.56123047 -51.78574219 55.26699219 -51.02539062 55.99414062 C-49.48276875 57.44139573 -47.93596888 58.88421206 -46.38476562 60.32226562 C-39.47714028 66.95382602 -35.31960092 73.96083972 -33.25 83.375 C-33.02828125 84.35210937 -32.8065625 85.32921875 -32.578125 86.3359375 C-32.38734375 87.21507812 -32.1965625 88.09421875 -32 89 C-31.67188566 90.33462724 -31.34075196 91.66854328 -31 93 C-32.65 94.32 -34.3 95.64 -36 97 C-36 96.01 -36 95.02 -36 94 C-36.66 94.99 -37.32 95.98 -38 97 C-38.33 96.67 -38.66 96.34 -39 96 C-40.98 100.95 -40.98 100.95 -43 106 C-43.99 106 -44.98 106 -46 106 C-47.65 100.06 -49.3 94.12 -51 88 C-52.65 90.31 -54.3 92.62 -56 95 C-56.99 94.505 -56.99 94.505 -58 94 C-58.26554687 94.63808594 -58.53109375 95.27617187 -58.8046875 95.93359375 C-59.15789062 96.75988281 -59.51109375 97.58617187 -59.875 98.4375 C-60.22304687 99.26121094 -60.57109375 100.08492188 -60.9296875 100.93359375 C-62 103 -62 103 -64 104 C-64.474375 104.99 -64.94875 105.98 -65.4375 107 C-67 110 -67 110 -70 111 C-70.26554687 109.96359375 -70.53109375 108.9271875 -70.8046875 107.859375 C-71.16122447 106.48952244 -71.5180083 105.11973412 -71.875 103.75 C-72.04902344 103.06808594 -72.22304687 102.38617188 -72.40234375 101.68359375 C-73.30293169 98.24801752 -74.2456414 95.09592695 -76 92 C-76.33 91.34 -76.66 90.68 -77 90 C-77.69867188 90.63808594 -78.39734375 91.27617187 -79.1171875 91.93359375 C-80.02726562 92.75988281 -80.93734375 93.58617187 -81.875 94.4375 C-82.77992187 95.26121094 -83.68484375 96.08492188 -84.6171875 96.93359375 C-87 99 -87 99 -89 100 C-89.40050806 92.39034691 -88.04776671 85.52663198 -86.43017578 78.10595703 C-85.95006294 75.75552946 -85.55601677 73.39664738 -85.15625 71.03125 C-83.81248781 63.54457495 -81.81604353 56.22335793 -79.875 48.875 C-79.31662782 46.74828013 -78.75941101 44.62126528 -78.20339966 42.493927 C-77.70534693 40.5902633 -77.20407886 38.68744168 -76.70263672 36.78466797 C-75.95922412 34.31705599 -75.95922412 34.31705599 -76 33 C-76.33 33 -76.66 33 -77 33 C-77.51476748 26.25082638 -76.81211113 20.15347431 -75.1875 13.625 C-75.02217773 12.94759766 -74.85685547 12.27019531 -74.68652344 11.57226562 C-73.64690492 7.62132368 -72.28211755 4.38721172 -70 1 C-69 3 -69 3 -69 5 C-68.34 4.01 -67.68 3.02 -67 2 C-61.77143723 0.88571613 -58.87504249 0.61829985 -54 3 C-51.4296875 4.76953125 -51.4296875 4.76953125 -48.875 6.8125 C-48.02679688 7.47894531 -47.17859375 8.14539063 -46.3046875 8.83203125 C-43.01048665 11.9308134 -41.17794094 14.54681567 -40.625 19.0625 C-41.04257337 22.33349143 -41.99914687 23.47718518 -44 26 C-43.505 27.485 -43.505 27.485 -43 29 C-42.42710997 35.30179028 -42.42710997 35.30179028 -45 38.4375 C-45.66 38.953125 -46.32 39.46875 -47 40 C-46.01 40.66 -45.02 41.32 -44 42 C-41.8110445 38.71656676 -41.70653577 37.34156538 -41.5 33.5 C-41.29346423 29.65843462 -41.1889555 28.28343324 -39 25 C-38.34 23.96875 -37.68 22.9375 -37 21.875 C-35 19 -35 19 -33 18 C-29.6875 17.625 -29.6875 17.625 -26 18 C-23.1875 20.4375 -23.1875 20.4375 -21 23 C-20.34 23.33 -19.68 23.66 -19 24 C-18.36087308 26.86434404 -17.83055456 29.66879881 -17.375 32.5625 C-17.2409375 33.36880859 -17.106875 34.17511719 -16.96875 35.00585938 C-16.63792701 37.0026124 -16.31794962 39.0011567 -16 41 C-13.84365964 41 -12.07553648 40.5534764 -10 40 C-10.804375 39.71125 -11.60875 39.4225 -12.4375 39.125 C-15 38 -15 38 -16 36 C-16.25860135 31.94857881 -16.30441554 30.45662331 -14 27 C-14.48597656 26.60554688 -14.97195312 26.21109375 -15.47265625 25.8046875 C-17.9414926 22.88754582 -17.47587257 20.10705357 -17.33203125 16.42578125 C-16.69085348 11.74141187 -14.20528701 9.93503444 -10.61328125 7.1484375 C-3.58802291 2 -3.58802291 2 0 2 C0 1.34 0 0.68 0 0 Z " fill="#EEF0F6" transform="translate(142,95)"/>
<path d="M0 0 C4.86115742 0.41667064 6.76394421 2.50156131 10 6 C10.66 6.33 11.32 6.66 12 7 C11.505 4.525 11.505 4.525 11 2 C15.94387949 6.35006156 17.37688842 13.64426188 18 20 C18.07210087 24.00159839 18.0582769 27.99831948 18 32 C17.34 31.01 16.68 30.02 16 29 C17.1704782 33.77318863 18.40739 38.51437138 19.7512207 43.24145508 C21.73725947 50.23339978 23.61650559 57.24430778 25.3125 64.3125 C25.48378418 65.01109131 25.65506836 65.70968262 25.83154297 66.42944336 C26.67815163 70.03127427 27.13983224 73.30443367 27 77 C27.45219512 79.86390246 28.14359903 82.43079709 29.0625 85.1875 C30.21554861 89.87656434 30.17382323 94.20054751 30 99 C25.14032976 96.49653351 21.72143296 92.91447559 18 89 C17.81824219 89.93972656 17.81824219 89.93972656 17.6328125 90.8984375 C17.46523437 91.71570313 17.29765625 92.53296875 17.125 93.375 C16.96257812 94.18710938 16.80015625 94.99921875 16.6328125 95.8359375 C16 98 16 98 14 100 C13.32059533 102.42715206 13.32059533 102.42715206 12.875 105.125 C12.70742187 106.03507812 12.53984375 106.94515625 12.3671875 107.8828125 C12.18542969 108.93082031 12.18542969 108.93082031 12 110 C10.68 110 9.36 110 8 110 C6.68 106.7 5.36 103.4 4 100 C3.01 100.495 3.01 100.495 2 101 C1.731875 100.195625 1.46375 99.39125 1.1875 98.5625 C0.795625 97.716875 0.40375 96.87125 0 96 C-1.485 95.505 -1.485 95.505 -3 95 C-5.76591425 91.42058156 -7.46864683 88.51650194 -8 84 C-8.0825 85.19625 -8.165 86.3925 -8.25 87.625 C-8.96436531 94.2888555 -11.04707014 100.61437353 -13 107 C-13.66 107 -14.32 107 -15 107 C-15.26554687 106.45730469 -15.53109375 105.91460937 -15.8046875 105.35546875 C-16.15789062 104.64003906 -16.51109375 103.92460937 -16.875 103.1875 C-17.22304687 102.47980469 -17.57109375 101.77210938 -17.9296875 101.04296875 C-19.0656486 98.78753582 -19.0656486 98.78753582 -21 96 C-21.66 95.01 -22.32 94.02 -23 93 C-23.33 94.32 -23.66 95.64 -24 97 C-25.32 95.68 -26.64 94.36 -28 93 C-27.81824219 92.40574219 -27.63648437 91.81148438 -27.44921875 91.19921875 C-27.19785156 90.37035156 -26.94648437 89.54148437 -26.6875 88.6875 C-26.26791016 87.31851563 -26.26791016 87.31851563 -25.83984375 85.921875 C-25.29633396 84.03096652 -24.80542636 82.12380675 -24.37890625 80.203125 C-22.33650249 71.22162277 -18.05773148 65.94129303 -11.53515625 59.609375 C-10.91423096 59.00391846 -10.29330566 58.39846191 -9.65356445 57.7746582 C-8.41201138 56.57641698 -7.15708338 55.39183641 -5.88745117 54.22338867 C-1.60103021 50.13472103 0.28318941 46.67915967 2 41 C2.78375 41.515625 3.5675 42.03125 4.375 42.5625 C5.24125 43.036875 6.1075 43.51125 7 44 C7.66 43.67 8.32 43.34 9 43 C6.525 41.02 6.525 41.02 4 39 C3.01 39.495 3.01 39.495 2 40 C-0.68799731 39.9884138 -3.32029127 39.90459858 -6 39.75 C-6.73734375 39.72292969 -7.4746875 39.69585937 -8.234375 39.66796875 C-10.375 39.546875 -10.375 39.546875 -14 39 C-16.31332486 35.53001271 -16.33957563 34.07490752 -16 30 C-15.34 29.01 -14.68 28.02 -14 27 C-14.48597656 26.60554688 -14.97195312 26.21109375 -15.47265625 25.8046875 C-17.9414926 22.88754582 -17.47587257 20.10705357 -17.33203125 16.42578125 C-16.69085348 11.74141187 -14.20528701 9.93503444 -10.61328125 7.1484375 C-3.58802291 2 -3.58802291 2 0 2 C0 1.34 0 0.68 0 0 Z " fill="#F0F2F8" transform="translate(142,95)"/>
<path d="M0 0 C0.99 -0.33 1.98 -0.66 3 -1 C10.99241837 -1.82354311 17.76953384 -0.4940877 25 3 C25.99 3.99 25.99 3.99 27 5 C26.01 5.33 25.02 5.66 24 6 C24.556875 6.31710938 25.11375 6.63421875 25.6875 6.9609375 C32.24636947 10.97159755 36.508578 15.80746722 41 22 C40.67 22.66 40.34 23.32 40 24 C39.0925 23.319375 38.185 22.63875 37.25 21.9375 C34.28527385 19.73017191 34.28527385 19.73017191 31.625 20.25 C31.08875 20.4975 30.5525 20.745 30 21 C30 21.66 30 22.32 30 23 C29.15566406 23.39058594 28.31132812 23.78117187 27.44140625 24.18359375 C23.00285383 26.52630303 19.13692988 29.42180581 15.12304688 32.41601562 C7.5755794 37.94641622 1.36074149 38.86970214 -8 38 C-14.35947151 36.36936628 -19.84150619 31.35677865 -24.98999023 27.44189453 C-29.45633566 24.11265346 -32.5093071 23 -38 23 C-38.66 23.495 -39.32 23.99 -40 24.5 C-42 26 -42 26 -45 26 C-41.8987712 16.85953617 -34.24654282 10.49811426 -26 6 C-27.32 5.34 -28.64 4.68 -30 4 C-28.58521865 3.35004703 -27.16808513 2.70521278 -25.75 2.0625 C-24.96109375 1.70285156 -24.1721875 1.34320313 -23.359375 0.97265625 C-15.83581212 -2.128945 -7.87201477 -1.37760258 0 0 Z " fill="#D6D7D9" transform="translate(114,68)"/>
<path d="M0 0 C2.8125 2.4375 2.8125 2.4375 5 5 C5.66 5.33 6.32 5.66 7 6 C7.63912692 8.86434404 8.16944544 11.66879881 8.625 14.5625 C8.82609375 15.77196289 8.82609375 15.77196289 9.03125 17.00585938 C9.36207299 19.0026124 9.68205038 21.0011567 10 23 C13.35642399 23 16.67294593 22.47256523 20 22.0625 C20.73734375 21.97548828 21.4746875 21.88847656 22.234375 21.79882812 C26.24290786 21.35943254 26.24290786 21.35943254 30 20 C31.98 21.65 33.96 23.3 36 25 C34.35 26.32 32.7 27.64 31 29 C29 28 29 28 28 25 C27.4740625 25.72058594 26.948125 26.44117188 26.40625 27.18359375 C23.74288605 30.30094019 20.7840901 32.65342257 17.5 35.0625 C13.75789649 37.83301427 10.20359708 40.60010408 7 44 C7 43.01 7 42.02 7 41 C3.94949436 47.75005502 1.99856814 54.50131907 0.48339844 61.72851562 C0.08241315 63.50933677 -0.44921008 65.2596714 -1 67 C-1.99 67.33 -2.98 67.66 -4 68 C-7.3537904 63.55588268 -8.77750353 59.78045775 -9.625 54.25 C-10.24744596 49.15746135 -10.24744596 49.15746135 -13 45 C-13.73089844 44.24847656 -14.46179688 43.49695313 -15.21484375 42.72265625 C-18.21159716 39.79315116 -21.33974369 37.11138642 -24.5625 34.4375 C-32.64933452 27.71849578 -32.64933452 27.71849578 -35 25 C-35 24.01 -35 23.02 -35 22 C-32.72942623 21.94601013 -30.45848712 21.90721258 -28.1875 21.875 C-26.92292969 21.85179687 -25.65835938 21.82859375 -24.35546875 21.8046875 C-21 22 -21 22 -18 24 C-15.8110445 20.71656676 -15.70653577 19.34156538 -15.5 15.5 C-15.29346423 11.65843462 -15.1889555 10.28343324 -13 7 C-12.34 5.96875 -11.68 4.9375 -11 3.875 C-7.86111603 -0.63714571 -5.3637437 -0.54546546 0 0 Z " fill="#F59D08" transform="translate(116,113)"/>
<path d="M0 0 C1.6921983 -0.01644633 3.38433046 -0.04358404 5.07617188 -0.08203125 C15.48700075 -0.31699255 24.3662641 -0.14381377 33.62475586 5.35009766 C35.62475586 7.35009766 35.62475586 7.35009766 36.37475586 9.66259766 C37.75634684 12.63301826 39.37709387 13.74392933 41.90600586 15.72119141 C47.95209806 21.45123788 52.49551181 30.07838501 53.62475586 38.35009766 C53.46104492 39.07841797 53.29733398 39.80673828 53.12866211 40.55712891 C52.38471574 44.68055259 53.03727081 48.53119356 53.56225586 52.66259766 C53.6621582 53.49855469 53.76206055 54.33451172 53.86499023 55.19580078 C54.11126409 57.24808289 54.36706483 59.29921785 54.62475586 61.35009766 C53.96475586 61.35009766 53.30475586 61.35009766 52.62475586 61.35009766 C52.33600586 61.98947266 52.04725586 62.62884766 51.74975586 63.28759766 C50.62475586 65.35009766 50.62475586 65.35009766 48.62475586 66.35009766 C48.29475586 63.05009766 47.96475586 59.75009766 47.62475586 56.35009766 C48.61475586 58.33009766 48.61475586 58.33009766 49.62475586 60.35009766 C50.05798287 51.68555739 48.83667483 43.05974064 44.62475586 35.35009766 C45.11975586 37.82509766 45.11975586 37.82509766 45.62475586 40.35009766 C41.8595441 37.95405381 38.76863556 35.49397736 35.62475586 32.35009766 C34.13975586 31.85509766 34.13975586 31.85509766 32.62475586 31.35009766 C32.62475586 32.01009766 32.62475586 32.67009766 32.62475586 33.35009766 C31.42850586 33.90697266 30.23225586 34.46384766 28.99975586 35.03759766 C23.85215888 37.61139615 19.86252487 40.49344414 16.62475586 45.35009766 C16.27078726 47.76014403 16.27078726 47.76014403 16.31225586 50.35009766 C16.28711914 51.64947266 16.28711914 51.64947266 16.26147461 52.97509766 C16.68771639 55.76171056 17.46306723 56.61618382 19.62475586 58.35009766 C18.96475586 59.34009766 18.30475586 60.33009766 17.62475586 61.35009766 C17.33813153 65.49786039 17.33813153 65.49786039 18.62475586 69.35009766 C20.98074821 69.81761553 20.98074821 69.81761553 23.68725586 69.97509766 C24.60635742 70.04986328 25.52545898 70.12462891 26.47241211 70.20166016 C27.53782227 70.27513672 27.53782227 70.27513672 28.62475586 70.35009766 C28.62475586 70.68009766 28.62475586 71.01009766 28.62475586 71.35009766 C26.63907878 71.83837891 24.65340169 72.32666016 22.66772461 72.81494141 C20.96792384 73.26020471 19.29173632 73.7944375 17.62475586 74.35009766 C14.22681877 70.95216057 14.71381151 66.07081034 14.18725586 61.43994141 C13.90881836 59.91046875 13.90881836 59.91046875 13.62475586 58.35009766 C12.63475586 57.85509766 12.63475586 57.85509766 11.62475586 57.35009766 C10.62475586 55.35009766 9.62475586 53.35009766 8.62475586 51.35009766 C5.5749159 49.82517768 2.98241896 50.11447218 -0.37524414 50.35009766 C-3.40273527 52.33362633 -4.08213084 55.07421062 -5.37524414 58.35009766 C-6.36524414 58.84509766 -6.36524414 58.84509766 -7.37524414 59.35009766 C-7.73396507 62.0972643 -7.81930123 64.82102535 -7.93383789 67.58837891 C-8.42391284 70.65460002 -9.3341331 72.05861033 -11.37524414 74.35009766 C-12.36524414 74.02009766 -13.35524414 73.69009766 -14.37524414 73.35009766 C-14.37524414 73.02009766 -14.37524414 72.69009766 -14.37524414 72.35009766 C-17.34524414 72.02009766 -20.31524414 71.69009766 -23.37524414 71.35009766 C-23.37524414 71.02009766 -23.37524414 70.69009766 -23.37524414 70.35009766 C-22.5927832 70.30111328 -21.81032227 70.25212891 -21.00415039 70.20166016 C-19.4862793 70.08951172 -19.4862793 70.08951172 -17.93774414 69.97509766 C-16.42374023 69.87068359 -16.42374023 69.87068359 -14.87915039 69.76416016 C-14.05286133 69.62751953 -13.22657227 69.49087891 -12.37524414 69.35009766 C-10.89187129 66.38335195 -11.31864977 63.63257099 -11.37524414 60.35009766 C-11.37524414 56.35009766 -11.37524414 56.35009766 -9.37524414 53.35009766 C-8.88870653 49.70106558 -9.18779475 47.73314642 -10.81274414 44.41259766 C-15.05260836 39.34544285 -19.88997522 34.32846814 -26.68774414 33.35009766 C-30.70404409 33.19835764 -30.70404409 33.19835764 -34.37524414 34.35009766 C-36.62374897 36.82671264 -36.62374897 36.82671264 -38.37524414 39.35009766 C-38.37524414 38.03009766 -38.37524414 36.71009766 -38.37524414 35.35009766 C-41.87477323 43.93985087 -43.71960265 52.05241787 -43.37524414 61.35009766 C-42.71524414 60.03009766 -42.05524414 58.71009766 -41.37524414 57.35009766 C-41.03008361 62.75185993 -42.28085345 67.1402841 -43.87524414 72.22509766 C-44.23295898 73.40072266 -44.23295898 73.40072266 -44.59790039 74.60009766 C-45.18294307 76.51903765 -45.77807665 78.4348962 -46.37524414 80.35009766 C-47.69524414 80.02009766 -49.01524414 79.69009766 -50.37524414 79.35009766 C-50.2424707 78.66947266 -50.10969727 77.98884766 -49.97290039 77.28759766 C-48.63286318 69.93206494 -47.98984035 62.64596607 -47.59399414 55.19384766 C-47.35948855 51.07324939 -46.99117065 46.98127695 -46.55883789 42.87744141 C-46.31469149 40.20452854 -46.31469149 40.20452854 -46.53149414 36.93994141 C-46.16390441 28.49456741 -40.45993038 21.05643644 -34.56274414 15.35009766 C-33.81379883 14.69009766 -33.06485352 14.03009766 -32.29321289 13.35009766 C-30.21830877 11.4526374 -30.21830877 11.4526374 -29.42211914 8.77197266 C-28.03910255 5.57245667 -26.56879514 5.01619708 -23.43774414 3.60009766 C-22.5624707 3.19275391 -21.68719727 2.78541016 -20.78540039 2.36572266 C-14.08110375 -0.45942666 -7.16465529 0.05085703 0 0 Z M-25.37524414 9.35009766 C-24.05524414 9.68009766 -22.73524414 10.01009766 -21.37524414 10.35009766 C-21.8715332 10.62982422 -22.36782227 10.90955078 -22.87915039 11.19775391 C-30.26727556 15.5577291 -36.04710206 20.90569327 -40.37524414 28.35009766 C-40.37524414 29.01009766 -40.37524414 29.67009766 -40.37524414 30.35009766 C-36.7064326 29.64455697 -33.6707388 28.07274259 -30.37524414 26.35009766 C-30.37524414 26.68009766 -30.37524414 27.01009766 -30.37524414 27.35009766 C-29.35430664 27.57826172 -28.33336914 27.80642578 -27.28149414 28.04150391 C-23.13484672 29.22730323 -20.13534899 31.5391151 -16.87524414 34.28759766 C-9.59675485 40.37071462 -3.28283389 43.02761163 6.35913086 42.75244141 C15.37005502 41.64224381 22.13551133 35.69234498 29.05834961 30.24072266 C31.62475586 28.35009766 31.62475586 28.35009766 34.62475586 27.35009766 C34.62475586 26.69009766 34.62475586 26.03009766 34.62475586 25.35009766 C36.18725586 24.60009766 36.18725586 24.60009766 38.62475586 24.35009766 C41.12761995 25.48094203 43.29483308 26.87149281 45.62475586 28.35009766 C43.4075962 20.46686333 36.96456047 15.10588628 30.12866211 11.16259766 C29.63237305 10.89447266 29.13608398 10.62634766 28.62475586 10.35009766 C29.61475586 9.69009766 30.60475586 9.03009766 31.62475586 8.35009766 C30.02102276 7.70318843 28.4167528 7.05761002 26.81225586 6.41259766 C25.91893555 6.05294922 25.02561523 5.69330078 24.10522461 5.32275391 C16.65354355 2.40075614 9.42015443 2.98590291 1.62475586 4.35009766 C0.63475586 4.02009766 -0.35524414 3.69009766 -1.37524414 3.35009766 C-9.51279742 2.51159977 -19.29918352 3.27403703 -25.37524414 9.35009766 Z " fill="#0D0D30" transform="translate(109.375244140625,63.64990234375)"/>
<path d="M0 0 C-0.1401998 3.35442664 -0.28818428 6.70846775 -0.4375 10.0625 C-0.47681641 11.00544922 -0.51613281 11.94839844 -0.55664062 12.91992188 C-0.59853516 13.84482422 -0.64042969 14.76972656 -0.68359375 15.72265625 C-0.73858032 16.98734741 -0.73858032 16.98734741 -0.79467773 18.27758789 C-1.04114457 21.54554474 -1.53570855 24.75616519 -2 28 C-2.41999284 32.74387743 -2.70295765 37.49703856 -3 42.25 C-3.04457336 42.93775513 -3.08914673 43.62551025 -3.1350708 44.33410645 C-3.67406703 52.71149672 -4.06454892 61.07486799 -4.2109375 69.46875 C-4.22602356 70.24724304 -4.24110962 71.02573608 -4.25665283 71.82781982 C-4.32768107 75.59290611 -4.37836115 79.35635139 -4.39453125 83.12207031 C-4.56607903 98.05999801 -8.23591377 108.13788149 -18.74609375 118.765625 C-20.3125 120.1875 -20.3125 120.1875 -23 122 C-23.99 121.67 -24.98 121.34 -26 121 C-24.59782722 117.6779291 -23.03689982 116.04337692 -20.1875 113.875 C-14.69215867 109.24892176 -11.39965054 103.03843055 -10 96 C-9.82616618 93.33927092 -9.69680477 90.69481158 -9.60546875 88.03125 C-9.53873433 86.35195003 -9.47148844 84.67267033 -9.40380859 82.9934082 C-9.3689032 82.09981598 -9.3339978 81.20622375 -9.29803467 80.28555298 C-8.24717249 53.8030717 -6.1695361 27.41069346 -4 1 C-5.38711182 0.550802 -5.38711182 0.550802 -6.80224609 0.0925293 C-10.24320635 -1.08309272 -13.36436373 -2.57926292 -16.625 -4.1875 C-32.86234889 -11.89346412 -49.23654335 -16.41652452 -67 -19 C-67.69287109 -19.1038501 -68.38574219 -19.2077002 -69.09960938 -19.31469727 C-101.30816074 -23.79384798 -134.30058156 -14.16258313 -162 2 C-161.55235106 11.93056516 -161.05831938 21.85081771 -160.28125 31.76171875 C-160.21833267 32.56593765 -160.15541534 33.37015656 -160.09059143 34.19874573 C-159.96081653 35.84890428 -159.83069182 37.49903535 -159.70022583 39.1491394 C-158.82003503 50.30774785 -157.95403528 61.44661899 -157.72265625 72.640625 C-157.69822952 73.77072746 -157.69822952 73.77072746 -157.67330933 74.92366028 C-157.60330124 78.43943758 -157.55987936 81.95302705 -157.5546875 85.46948242 C-157.40209244 96.81800628 -154.7216849 105.52128717 -147 114 C-145.8966685 114.96290749 -144.77273456 115.9029745 -143.625 116.8125 C-142.75875 117.534375 -141.8925 118.25625 -141 119 C-141 119.99 -141 120.98 -141 122 C-147.54645251 120.74216633 -151.60304887 115.86963038 -155.25 110.5625 C-159.51708349 104.05399906 -161.42918948 98.43968672 -161.625 90.67578125 C-161.6569899 89.87244354 -161.6889798 89.06910583 -161.72193909 88.24142456 C-161.79015722 86.50559344 -161.85255418 84.76952563 -161.90969849 83.03329468 C-162.0652495 78.34652543 -162.26680342 73.66169749 -162.46484375 68.9765625 C-162.525261 67.5145768 -162.525261 67.5145768 -162.5868988 66.02305603 C-163.05449347 55.065062 -163.79400912 44.12787342 -164.5625 33.1875 C-164.62671143 32.26442047 -164.69092285 31.34134094 -164.75708008 30.39028931 C-165.46279686 20.25693469 -166.20178782 10.1265205 -167 0 C-159.28979349 -4.72926207 -151.53166796 -8.8182509 -143.1875 -12.3125 C-142.41237061 -12.63734375 -141.63724121 -12.9621875 -140.83862305 -13.296875 C-132.71338236 -16.62888905 -124.58271643 -19.26243133 -116 -21.125 C-115.2575 -21.29386719 -114.515 -21.46273438 -113.75 -21.63671875 C-75.72154479 -30.02146495 -32.45550514 -21.3122454 0 0 Z " fill="#ECE7E8" transform="translate(196,39)"/>
<path d="M0 0 C5.89037759 5.73934227 5.89037759 5.73934227 6.25 9.875 C5.97070131 13.36623367 5.10924167 14.34052138 3 17 C3.33 17.99 3.66 18.98 4 20 C4.34710744 26.47933884 4.34710744 26.47933884 2 30 C-0.77262255 30.38394667 -3.34323528 30.60342248 -6.125 30.6875 C-6.87910156 30.72166016 -7.63320312 30.75582031 -8.41015625 30.79101562 C-10.27291201 30.87354278 -12.13643326 30.93844711 -14 31 C-11.79033067 37.12622469 -11.79033067 37.12622469 -9 43 C-9.66 43.66 -10.32 44.32 -11 45 C-14.875 39.375 -14.875 39.375 -16 36 C-16.66 36.66 -17.32 37.32 -18 38 C-18 36.35 -18 34.7 -18 33 C-18.66 32.67 -19.32 32.34 -20 32 C-17.6875 29.5 -17.6875 29.5 -15 27 C-14.01 27 -13.02 27 -12 27 C-12 26.34 -12 25.68 -12 25 C-8.04 25.33 -4.08 25.66 0 26 C-0.495 23.525 -0.495 23.525 -1 21 C-1.78375 21.70125 -2.5675 22.4025 -3.375 23.125 C-6.4493176 25.18186487 -8.51008881 25.15607269 -12.125 24.5625 C-15.75604758 23.66020655 -16.89408225 23.10591775 -19.625 20.375 C-20.07875 19.59125 -20.5325 18.8075 -21 18 C-20.67 19.65 -20.34 21.3 -20 23 C-22 22 -22 22 -23 19 C-23.07973476 17.66474283 -23.10771338 16.32587917 -23.09765625 14.98828125 C-23.09443359 14.23095703 -23.09121094 13.47363281 -23.08789062 12.69335938 C-23.07951172 11.90767578 -23.07113281 11.12199219 -23.0625 10.3125 C-23.05798828 9.51521484 -23.05347656 8.71792969 -23.04882812 7.89648438 C-23.0370585 5.93095743 -23.01912348 3.96546915 -23 2 C-18.40172538 3.69150816 -14.58576547 6.08929693 -10.5 8.7578125 C-7.71898013 10.37081111 -7.71898013 10.37081111 -3 10 C-2.01 6.7 -1.02 3.4 0 0 Z " fill="#D2D3D6" transform="translate(95,104)"/>
<path d="M0 0 C1.36125 0.4640625 1.36125 0.4640625 2.75 0.9375 C5.80371009 2.00993702 5.80371009 2.00993702 8.25 2.4375 C10 3 10 3 12 6 C11.9765625 8.26171875 11.9765625 8.26171875 11.625 10.6875 C11.51414063 11.49574219 11.40328125 12.30398437 11.2890625 13.13671875 C11.19367188 13.75160156 11.09828125 14.36648437 11 15 C8.69 14.67 6.38 14.34 4 14 C3.814375 15.36125 3.814375 15.36125 3.625 16.75 C2.8474907 20.79304834 1.90287279 23.09712721 -1 26 C-1.99 25.34 -2.98 24.68 -4 24 C-4.33 24.66 -4.66 25.32 -5 26 C-9.75 24.125 -9.75 24.125 -12 23 C-13.47369759 22.7734924 -14.95441144 22.59092295 -16.4375 22.4375 C-17.21996094 22.35371094 -18.00242187 22.26992187 -18.80859375 22.18359375 C-22.67159396 21.75785817 -22.67159396 21.75785817 -26 23.5 C-28 25 -28 25 -31 25 C-29.09268152 18.70584901 -25.60568056 14.41774918 -19.85546875 11.2890625 C-16.59565656 9.78903669 -13.31126075 8.38183104 -10 7 C-7.66719571 5.91875115 -6.21748985 5.22618945 -4.4375 3.375 C-3 2 -3 2 0 2 C0 1.34 0 0.68 0 0 Z " fill="#EBEDF3" transform="translate(100,69)"/>
<path d="M0 0 C0.598125 0.165 1.19625 0.33 1.8125 0.5 C3.96864048 1.17919598 3.96864048 1.17919598 5.9375 0.4375 C8.77562988 -0.16452755 10.43200707 0.78733667 13 2 C13 2.66 13 3.32 13 4 C14.2065625 4.185625 14.2065625 4.185625 15.4375 4.375 C16.283125 4.58125 17.12875 4.7875 18 5 C18.33 5.66 18.66 6.32 19 7 C21.04583559 7.75511528 23.11242146 8.45440965 25.1875 9.125 C31.54967907 11.45313806 34.78240625 14.07903981 38 20 C37.67 20.66 37.34 21.32 37 22 C36.0925 21.319375 35.185 20.63875 34.25 19.9375 C31.28527385 17.73017191 31.28527385 17.73017191 28.625 18.25 C28.08875 18.4975 27.5525 18.745 27 19 C27 19.66 27 20.32 27 21 C25.948125 21.12375 24.89625 21.2475 23.8125 21.375 C20.52645284 21.91369626 18.02813321 22.70222862 15 24 C14.34 24 13.68 24 13 24 C13 23.34 13 22.68 13 22 C11.02 22.99 11.02 22.99 9 24 C8.67 22.02 8.34 20.04 8 18 C7.34 18 6.68 18 6 18 C5.34 16.35 4.68 14.7 4 13 C3.401875 13.350625 2.80375 13.70125 2.1875 14.0625 C0 15 0 15 -3 14 C-4.35151515 6.75096419 -4.35151515 6.75096419 -2.625 3.0625 C-1 1 -1 1 0 0 Z " fill="#F1F2F8" transform="translate(117,70)"/>
<path d="M0 0 C2.625 0.375 2.625 0.375 5 1 C-0 6 -0 6 -2.8125 8.1875 C-5.63653323 11.81839987 -5.52322256 14.21494464 -5.46875 18.6953125 C-4.92369885 21.37514733 -4.08986233 22.29920778 -2 24 C-2.66 24.99 -3.32 25.98 -4 27 C-4.28662433 31.14776273 -4.28662433 31.14776273 -3 35 C-0.64400765 35.46751788 -0.64400765 35.46751788 2.0625 35.625 C2.98160156 35.69976562 3.90070313 35.77453125 4.84765625 35.8515625 C5.55792969 35.90054688 6.26820313 35.94953125 7 36 C7 36.33 7 36.66 7 37 C5.01432292 37.48828125 3.02864583 37.9765625 1.04296875 38.46484375 C-0.65683202 38.91010705 -2.33301954 39.44433985 -4 40 C-7.39793709 36.60206291 -6.91094434 31.72071268 -7.4375 27.08984375 C-7.623125 26.07019531 -7.80875 25.05054687 -8 24 C-8.66 23.67 -9.32 23.34 -10 23 C-11 21 -12 19 -13 17 C-16.04983996 15.47508002 -18.6423369 15.76437452 -22 16 C-25.02749113 17.98352867 -25.7068867 20.72411296 -27 24 C-27.66 24.33 -28.32 24.66 -29 25 C-29.35872093 27.74716664 -29.44405709 30.4709277 -29.55859375 33.23828125 C-30.0486687 36.30450237 -30.95888896 37.70851267 -33 40 C-33.99 39.67 -34.98 39.34 -36 39 C-36 38.67 -36 38.34 -36 38 C-38.97 37.67 -41.94 37.34 -45 37 C-45 36.67 -45 36.34 -45 36 C-44.21753906 35.95101562 -43.43507813 35.90203125 -42.62890625 35.8515625 C-41.61699219 35.77679688 -40.60507813 35.70203125 -39.5625 35.625 C-38.04849609 35.52058594 -38.04849609 35.52058594 -36.50390625 35.4140625 C-35.67761719 35.27742188 -34.85132812 35.14078125 -34 35 C-32.51662714 32.03325429 -32.94340563 29.28247334 -33 26 C-33 22 -33 22 -31 19 C-30.45255614 14.98541171 -31.02025111 12.64197047 -33.0625 9.25 C-34.0215625 7.64125 -34.0215625 7.64125 -35 6 C-34.67 5.34 -34.34 4.68 -34 4 C-32.783125 4.495 -31.56625 4.99 -30.3125 5.5 C-22.19999622 8.15314589 -14.0660186 8.41212325 -6.3125 4.625 C-3.81244836 3.22562576 -2.03101465 2.03101465 0 0 Z " fill="#090C30" transform="translate(131,98)"/>
<path d="M0 0 C0.99 0.33 1.98 0.66 3 1 C3.33 4.3 3.66 7.6 4 11 C8.82810874 9.63822574 12.78443885 7.49919083 17.046875 4.92578125 C17.69140625 4.62027344 18.3359375 4.31476563 19 4 C19.66 4.33 20.32 4.66 21 5 C19.8596735 15.67141369 19.8596735 15.67141369 16.9375 20.1875 C13.12369704 22.54069757 9.48646681 23.34375679 5 23 C4.34 22.34 3.68 21.68 3 21 C2.01 23.475 2.01 23.475 1 26 C1.56847656 25.98839844 2.13695312 25.97679687 2.72265625 25.96484375 C7.5669281 25.90823289 12.24765406 25.93314683 17 27 C17.66 27.99 18.32 28.98 19 30 C12.43111662 30.90846259 5.49484954 31.74861334 -1 30 C-3.31332486 26.53001271 -3.33957563 25.07490752 -3 21 C-2.34 20.01 -1.68 19.02 -1 18 C-1.48597656 17.60554688 -1.97195312 17.21109375 -2.47265625 16.8046875 C-4.93375496 13.89668851 -4.46231905 11.12360196 -4.37109375 7.453125 C-3.86357446 4.0981554 -2.44335512 2.29064542 0 0 Z " fill="#CECED2" transform="translate(129,104)"/>
<path d="M0 0 C0.86528401 2.97020076 1.09710545 5.54515362 1.02734375 8.6328125 C1.01509766 9.52226562 1.00285156 10.41171875 0.99023438 11.328125 C0.95551839 13.16935792 0.9165673 15.01051665 0.87304688 16.8515625 C0.79684957 23.09077735 1.31070261 28.96867436 3 35 C3.495 35.495 3.495 35.495 4 36 C4.99 31.71 5.98 27.42 7 23 C7.66 24.32 8.32 25.64 9 27 C12.63 20.73 16.26 14.46 20 8 C21.3609623 10.7219246 20.70366248 12.1831957 20.0625 15.125 C19.86785156 16.03507812 19.67320313 16.94515625 19.47265625 17.8828125 C19.31667969 18.58148438 19.16070312 19.28015625 19 20 C19.66 19.34 20.32 18.68 21 18 C21.58305225 21.84814487 20.7002883 23.76308635 18.5 26.8125 C17.67780256 27.88364055 16.84795951 28.9491359 16 30 C15.34 29.67 14.68 29.34 14 29 C13.73445313 29.63808594 13.46890625 30.27617187 13.1953125 30.93359375 C12.66550781 32.17302734 12.66550781 32.17302734 12.125 33.4375 C11.60292969 34.67306641 11.60292969 34.67306641 11.0703125 35.93359375 C10 38 10 38 8 39 C7.525625 39.99 7.05125 40.98 6.5625 42 C5 45 5 45 2 46 C1.73445313 44.96359375 1.46890625 43.9271875 1.1953125 42.859375 C0.83877553 41.48952244 0.4819917 40.11973412 0.125 38.75 C-0.04902344 38.06808594 -0.22304687 37.38617188 -0.40234375 36.68359375 C-1.30293169 33.24801752 -2.2456414 30.09592695 -4 27 C-4.33 26.34 -4.66 25.68 -5 25 C-7.64 27.31 -10.28 29.62 -13 32 C-14.36420006 27.90739982 -12.7664515 25.52987341 -11.0625 21.8125 C-10.77181641 21.15830078 -10.48113281 20.50410156 -10.18164062 19.83007812 C-9.46304657 18.21618656 -8.7326412 16.60756345 -8 15 C-7.34 15.66 -6.68 16.32 -6 17 C-2.39138172 11.4667853 -0.99518578 6.50799121 0 0 Z " fill="#CDCED2" transform="translate(70,160)"/>
<path d="M0 0 C2.95097333 3.53855651 5.41966375 7.15147793 7.75 11.125 C8.36359375 12.15882813 8.9771875 13.19265625 9.609375 14.2578125 C11 17 11 17 11 20 C11.99 19.67 12.98 19.34 14 19 C14.99 21.64 15.98 24.28 17 27 C17.18175781 26.00097656 17.36351562 25.00195312 17.55078125 23.97265625 C17.80214844 22.68230469 18.05351562 21.39195312 18.3125 20.0625 C18.55613281 18.77472656 18.79976562 17.48695313 19.05078125 16.16015625 C19.36402344 15.11730469 19.67726562 14.07445312 20 13 C20.99 12.67 21.98 12.34 23 12 C23 10.02 23 8.04 23 6 C26 7 26 7 27 9 C27.66 8.67 28.32 8.34 29 8 C29.67119549 9.4562545 30.33681807 10.91507867 31 12.375 C31.556875 13.59316406 31.556875 13.59316406 32.125 14.8359375 C33 17 33 17 33 19 C33.66 19 34.32 19 35 19 C35 17.35 35 15.7 35 14 C35.66 14.33 36.32 14.66 37 15 C37 18.3 37 21.6 37 25 C32.14032976 22.49653351 28.72143296 18.91447559 25 15 C24.87882812 15.62648437 24.75765625 16.25296875 24.6328125 16.8984375 C24.46523437 17.71570313 24.29765625 18.53296875 24.125 19.375 C23.96257812 20.18710938 23.80015625 20.99921875 23.6328125 21.8359375 C23 24 23 24 21 26 C20.32059533 28.42715206 20.32059533 28.42715206 19.875 31.125 C19.70742187 32.03507812 19.53984375 32.94515625 19.3671875 33.8828125 C19.24601562 34.58148438 19.12484375 35.28015625 19 36 C17.68 36 16.36 36 15 36 C13.68 32.7 12.36 29.4 11 26 C10.34 26.33 9.68 26.66 9 27 C8.731875 26.195625 8.46375 25.39125 8.1875 24.5625 C7.795625 23.716875 7.40375 22.87125 7 22 C6.01 21.67 5.02 21.34 4 21 C1.66903138 18.06963945 0.11476006 16.00988857 -0.3125 12.25 C0 10 0 10 1 8 C0.90276549 6.00978479 0.90276549 6.00978479 0.5625 3.875 C0.376875 2.59625 0.19125 1.3175 0 0 Z " fill="#CECFD3" transform="translate(135,169)"/>
<path d="M0 0 C3.50060068 1.11382749 6.72152488 2.36076244 10 4 C10.66128906 4.08636719 11.32257813 4.17273438 12.00390625 4.26171875 C14 5 14 5 15.08203125 7.109375 C15.32308594 7.98078125 15.56414062 8.8521875 15.8125 9.75 C16.06644531 10.61109375 16.32039063 11.4721875 16.58203125 12.359375 C17 15 17 15 16.515625 17.24609375 C15.7469568 21.35148073 16.41432599 25.19534801 16.9375 29.3125 C17.08735352 30.56643555 17.08735352 30.56643555 17.24023438 31.84570312 C17.48650823 33.89798523 17.74230898 35.94912019 18 38 C17.34 38 16.68 38 16 38 C15.71125 38.639375 15.4225 39.27875 15.125 39.9375 C14 42 14 42 12 43 C11.505 38.05 11.505 38.05 11 33 C11.66 34.32 12.32 35.64 13 37 C13.43322701 28.33545974 12.21191897 19.70964299 8 12 C8.33 13.65 8.66 15.3 9 17 C5.23478824 14.60395615 2.14387971 12.14387971 -1 9 C-1.99 8.67 -2.98 8.34 -4 8 C-4 8.66 -4 9.32 -4 10 C-6.31 10.66 -8.62 11.32 -11 12 C-11.66 11.34 -12.32 10.68 -13 10 C-11.73608512 8.99126984 -10.46359117 7.99328178 -9.1875 7 C-8.12595703 6.1646875 -8.12595703 6.1646875 -7.04296875 5.3125 C-5 4 -5 4 -2 4 C-2 3.34 -2 2.68 -2 2 C-1.34 1.34 -0.68 0.68 0 0 Z " fill="#0C0C2F" transform="translate(146,87)"/>
<path d="M0 0 C0.99 -0.33 1.98 -0.66 3 -1 C10.99241837 -1.82354311 17.76953384 -0.4940877 25 3 C25.66 3.66 26.32 4.32 27 5 C26.01 5.33 25.02 5.66 24 6 C24.63808594 6.40992187 25.27617187 6.81984375 25.93359375 7.2421875 C26.75988281 7.78101562 27.58617187 8.31984375 28.4375 8.875 C29.26121094 9.40867187 30.08492188 9.94234375 30.93359375 10.4921875 C33 12 33 12 34 14 C30.50577615 13.19429304 27.14682647 12.08208283 23.75 10.9375 C22.67234375 10.57527344 21.5946875 10.21304688 20.484375 9.83984375 C19.66453125 9.56269531 18.8446875 9.28554687 18 9 C18 8.34 18 7.68 18 7 C16.12001388 4.23531453 14.90492641 3.98098528 11.5625 3.3125 C5.95307121 2.68703045 5.95307121 2.68703045 1 5 C0.67 5.99 0.34 6.98 0 8 C-3 7 -3 7 -5 4 C-9.73528277 2.89174233 -14.33609094 2.44536365 -19 4 C-19.26941406 4.79535156 -19.53882812 5.59070313 -19.81640625 6.41015625 C-21 9 -21 9 -23.4609375 10.328125 C-24.42257813 10.63234375 -25.38421875 10.9365625 -26.375 11.25 C-27.80972656 11.72179687 -27.80972656 11.72179687 -29.2734375 12.203125 C-31.50733215 12.85601112 -33.73581369 13.46346296 -36 14 C-33.13463296 9.92236229 -30.56958375 7.97322935 -26 6 C-27.32 5.34 -28.64 4.68 -30 4 C-28.58521865 3.35004703 -27.16808513 2.70521278 -25.75 2.0625 C-24.96109375 1.70285156 -24.1721875 1.34320313 -23.359375 0.97265625 C-15.83581212 -2.128945 -7.87201477 -1.37760258 0 0 Z " fill="#C0C2C7" transform="translate(114,68)"/>
<path d="M0 0 C0.66 0.33 1.32 0.66 2 1 C0.84870075 11.77409891 0.84870075 11.77409891 -2.25 16.25 C-5.60250269 18.3834108 -7.10394414 18.8116783 -11 18 C-13.875 15.625 -13.875 15.625 -16 13 C-16 12.34 -16 11.68 -16 11 C-17.32 10.67 -18.64 10.34 -20 10 C-20.33 8.68 -20.66 7.36 -21 6 C-20.608125 6.515625 -20.21625 7.03125 -19.8125 7.5625 C-18.09727259 9.25459762 -18.09727259 9.25459762 -15.8046875 8.84765625 C-11.5865269 7.57280827 -8.18765451 5.11955316 -4.55273438 2.70703125 C-3.06907423 1.74994182 -1.53732043 0.86828193 0 0 Z " fill="#23223B" transform="translate(148,108)"/>
<path d="M0 0 C5.54723999 1.61760459 9.61058237 4.26834803 14.31640625 7.5390625 C17.19220383 9.10463498 18.78383378 9.31405601 22 9 C22 9.66 22 10.32 22 11 C20.68 11 19.36 11 18 11 C17.9175 11.598125 17.835 12.19625 17.75 12.8125 C16.74963003 15.73024575 15.70191251 16.53950675 13 18 C9.19312056 18.64797948 7.55135582 18.33833198 4.25 16.3125 C0.38617691 12.06353699 0.53456733 5.44939533 0 0 Z " fill="#0E0E28" transform="translate(75,108)"/>
<path d="M0 0 C0 0.33 0 0.66 0 1 C-0.89976563 1.07476563 -1.79953125 1.14953125 -2.7265625 1.2265625 C-11.17030158 2.08954986 -19.18278524 3.63771828 -27.375 5.875 C-28.27686035 6.11943848 -29.1787207 6.36387695 -30.10791016 6.61572266 C-35.56179285 8.15327999 -40.71390446 10.02915816 -45.89306641 12.33251953 C-48 13 -48 13 -51 12 C-50.67 11.01 -50.34 10.02 -50 9 C-47.18714087 7.69218739 -44.47693163 6.59367746 -41.5625 5.5625 C-40.7159082 5.25755615 -39.86931641 4.9526123 -38.99707031 4.63842773 C-33.15493302 2.59844524 -27.28666783 0.91873338 -21.25 -0.4375 C-20.52498291 -0.60113037 -19.79996582 -0.76476074 -19.05297852 -0.93334961 C-12.30249017 -2.3405843 -6.53464636 -2.5501059 0 0 Z " fill="#E5E2E5" transform="translate(102,18)"/>
<path d="M0 0 C0.61669998 6.90703976 -0.88757018 10.47759424 -5 16 C-5.66 15.67 -6.32 15.34 -7 15 C-7.39832031 16.13179687 -7.79664063 17.26359375 -8.20703125 18.4296875 C-8.74166251 19.91164783 -9.27684766 21.39340843 -9.8125 22.875 C-10.07353516 23.62136719 -10.33457031 24.36773437 -10.60351562 25.13671875 C-10.86455078 25.85214844 -11.12558594 26.56757813 -11.39453125 27.3046875 C-11.74801636 28.2944458 -11.74801636 28.2944458 -12.10864258 29.30419922 C-13 31 -13 31 -16 33 C-16.6109618 20.16980225 -12.0378015 12.69778224 -4 3 C-1.21518987 0 -1.21518987 0 0 0 Z " fill="#EDEFF4" transform="translate(69,162)"/>
<path d="M0 0 C0.969375 0.845625 1.93875 1.69125 2.9375 2.5625 C5.77728864 5.00979753 8.69591589 7.30395305 11.6875 9.5625 C14.97242466 12.08505307 17.61211465 14.57390364 20 18 C20.66 17.67 21.32 17.34 22 17 C24.18561771 21.37123542 25.28755034 25.2142197 26 30.0625 C26.67973777 34.65361016 27.58653444 38.05069272 30 42 C28.68 42 27.36 42 26 42 C25.85304688 41.23816406 25.70609375 40.47632813 25.5546875 39.69140625 C22.42194574 25.26999161 13.852089 17.48392184 3.50878906 7.57470703 C1.06012568 5.01906321 0 3.59186456 0 0 Z " fill="#191231" transform="translate(82,139)"/>
<path d="M0 0 C0.33 0 0.66 0 1 0 C1.66 5.94 2.32 11.88 3 18 C3.66 15.69 4.32 13.38 5 11 C5.33 11 5.66 11 6 11 C6.33 13.31 6.66 15.62 7 18 C7.99 16.02 8.98 14.04 10 12 C12 15 12 15 11.625 18.1875 C11.315625 19.5796875 11.315625 19.5796875 11 21 C10.34 20.67 9.68 20.34 9 20 C7.68 23.3 6.36 26.6 5 30 C4.01 30 3.02 30 2 30 C-4.36712155 9.44752392 -4.36712155 9.44752392 -1.5625 2.375 C-1.046875 1.59125 -0.53125 0.8075 0 0 Z " fill="#D2D3D6" transform="translate(94,171)"/>
<path d="M0 0 C2.41056218 2.14196921 2.95743854 2.65547621 3.37109375 6.00390625 C3.39300781 7.17824219 3.41492187 8.35257813 3.4375 9.5625 C3.98040197 19.7001503 7.14432101 27.47219562 14 35 C15.1033315 35.96290749 16.22726544 36.9029745 17.375 37.8125 C18.24125 38.534375 19.1075 39.25625 20 40 C20 40.99 20 41.98 20 43 C13.45354749 41.74216633 9.39695113 36.86963038 5.75 31.5625 C0.8169498 24.03821275 -0.43661908 18.43497196 -0.1875 9.5625 C-0.17396484 8.64017578 -0.16042969 7.71785156 -0.14648438 6.76757812 C-0.11140953 4.51109617 -0.06226387 2.25586774 0 0 Z " fill="#EAE9ED" transform="translate(35,118)"/>
<path d="M0 0 C0.33 0.66 0.66 1.32 1 2 C-2.54304226 6.22021075 -6.19366856 10.22583572 -10.17480469 14.04052734 C-17.6084642 21.20136905 -21.96381952 27.81909758 -24 38 C-25.68432692 35.44574599 -26.02066941 34.20895923 -25.71484375 31.1171875 C-23.97236125 23.84954692 -21.71068902 17.49737248 -18 11 C-17 13 -17 13 -17 15 C-16.30519531 14.28457031 -15.61039063 13.56914062 -14.89453125 12.83203125 C-11.98179323 9.91929323 -8.8703375 7.29796818 -5.6875 4.6875 C-5.13771484 4.23310547 -4.58792969 3.77871094 -4.02148438 3.31054688 C-2.68287784 2.20474148 -1.34170769 1.10204061 0 0 Z " fill="#1E142F" transform="translate(142,140)"/>
<path d="M0 0 C4.50802601 1.25805377 7.4912812 2.90407165 11 6 C10.67 6.99 10.34 7.98 10 9 C9.01 9 8.02 9 7 9 C7.66 11.64 8.32 14.28 9 17 C5.23478824 14.60395615 2.14387971 12.14387971 -1 9 C-1.99 8.67 -2.98 8.34 -4 8 C-4 8.66 -4 9.32 -4 10 C-6.31 10.66 -8.62 11.32 -11 12 C-11.66 11.34 -12.32 10.68 -13 10 C-11.73608512 8.99126984 -10.46359117 7.99328178 -9.1875 7 C-8.12595703 6.1646875 -8.12595703 6.1646875 -7.04296875 5.3125 C-5 4 -5 4 -2 4 C-2 3.34 -2 2.68 -2 2 C-1.34 1.34 -0.68 0.68 0 0 Z " fill="#101334" transform="translate(146,87)"/>
<path d="M0 0 C2.29042945 3.88960316 3.12167502 8.08604239 4.125 12.4375 C4.30675781 13.18837891 4.48851562 13.93925781 4.67578125 14.71289062 C5.57741038 18.56684671 6.15983586 22.01863414 6 26 C6.29749946 27.67343448 6.62127066 29.34305915 7 31 C6.34 31 5.68 31 5 31 C3 28 3 28 2.3125 25 C1.09832761 20.21473233 -1.8895232 16.51005334 -4.734375 12.55078125 C-6 10 -6 10 -5.2734375 7.80859375 C-4.85320312 7.21175781 -4.43296875 6.61492187 -4 6 C-3.62875 5.2575 -3.2575 4.515 -2.875 3.75 C-2.58625 3.1725 -2.2975 2.595 -2 2 C-1.34 2.33 -0.68 2.66 0 3 C0 2.01 0 1.02 0 0 Z " fill="#E3E4E9" transform="translate(163,146)"/>
<path d="M0 0 C1.96537085 5.89611254 2.4092176 10.18953403 0 16 C0.66 15.67 1.32 15.34 2 15 C0.31029911 18.66398299 -1.87300211 21.90832572 -4.125 25.25 C-4.84945312 26.32765625 -5.57390625 27.4053125 -6.3203125 28.515625 C-6.87460937 29.33546875 -7.42890625 30.1553125 -8 31 C-10.28063855 24.66489291 -7.46776518 17.37281614 -5.9375 11.0625 C-5.75123047 10.28326172 -5.56496094 9.50402344 -5.37304688 8.70117188 C-4.91818991 6.80010303 -4.4594938 4.89995343 -4 3 C-3.34 3.66 -2.68 4.32 -2 5 C-1.34 3.35 -0.68 1.7 0 0 Z " fill="#D4D5DB" transform="translate(64,148)"/>
<path d="M0 0 C3.27554943 3.27554943 3.97765273 4.6133111 4.01953125 9.0859375 C3.33248478 16.68233814 1.24857158 23.74182012 -1 31 C-1.66 31 -2.32 31 -3 31 C-3.67154933 29.71086513 -4.33708859 28.41859796 -5 27.125 C-5.37125 26.40570313 -5.7425 25.68640625 -6.125 24.9453125 C-7 23 -7 23 -7 21 C-6.34 21 -5.68 21 -5 21 C-4.67 18.36 -4.34 15.72 -4 13 C-3.67 13 -3.34 13 -3 13 C-2.67 14.65 -2.34 16.3 -2 18 C-1.34 12.06 -0.68 6.12 0 0 Z " fill="#CFD0D3" transform="translate(130,171)"/>
<path d="M0 0 C1.65 0 3.3 0 5 0 C5 0.99 5 1.98 5 3 C5.845625 3.185625 6.69125 3.37125 7.5625 3.5625 C14.45735361 6.44580242 18.96691342 12.3019338 22 19 C21.59375 21.20703125 21.59375 21.20703125 21 23 C20.59910156 22.50371094 20.19820312 22.00742188 19.78515625 21.49609375 C15.92383674 16.88177315 11.89604164 13.2043586 7.08984375 9.59765625 C4.42987787 7.56414963 2.18594713 5.53851925 0 3 C0 2.01 0 1.02 0 0 Z " fill="#F1810D" transform="translate(81,135)"/>
<path d="M0 0 C2.3125 1.8125 2.3125 1.8125 4.3125 4.8125 C3.3225 5.1425 2.3325 5.4725 1.3125 5.8125 C0.6525 6.4725 -0.0075 7.1325 -0.6875 7.8125 C-2.6875 6.8125 -2.6875 6.8125 -3.6875 3.8125 C-4.2134375 4.53308594 -4.739375 5.25367188 -5.28125 5.99609375 C-7.94461395 9.11344019 -10.9034099 11.46592257 -14.1875 13.875 C-17.92960351 16.64551427 -21.48390292 19.41260408 -24.6875 22.8125 C-24.23840939 21.33050098 -23.77793436 19.85194764 -23.3125 18.375 C-23.05726562 17.55128906 -22.80203125 16.72757813 -22.5390625 15.87890625 C-21.6875 13.8125 -21.6875 13.8125 -19.6875 12.8125 C-19.3575 13.1425 -19.0275 13.4725 -18.6875 13.8125 C-15.16368313 11.26645403 -15.16368313 11.26645403 -12.6875 7.8125 C-13.3475 7.4825 -14.0075 7.1525 -14.6875 6.8125 C-11.0625 3.8125 -11.0625 3.8125 -7.6875 3.8125 C-7.6875 2.8225 -7.6875 1.8325 -7.6875 0.8125 C-4.51518141 -0.90961581 -3.39101217 -1.49835421 0 0 Z " fill="#BA5B21" transform="translate(147.6875,134.1875)"/>
<path d="M0 0 C0.96541545 3.18554592 1.05239684 5.88752707 0.87890625 9.203125 C0.83056641 10.1828125 0.78222656 11.1625 0.73242188 12.171875 C0.67634766 13.18765625 0.62027344 14.2034375 0.5625 15.25 C0.51029297 16.28125 0.45808594 17.3125 0.40429688 18.375 C0.27484366 20.91699039 0.13988672 23.45856593 0 26 C-0.28875 25.401875 -0.5775 24.80375 -0.875 24.1875 C-2.04742026 21.80672208 -2.04742026 21.80672208 -4 19 C-4.165 20.03125 -4.33 21.0625 -4.5 22.125 C-5.87133143 27.14980395 -9.79321153 29.32917848 -14 32 C-13.34496718 27.94180817 -12.05440879 24.46028718 -10.4375 20.6875 C-9.98246094 19.61886719 -9.52742188 18.55023438 -9.05859375 17.44921875 C-8.70925781 16.64097656 -8.35992187 15.83273438 -8 15 C-7.34 15.66 -6.68 16.32 -6 17 C-2.39138172 11.4667853 -0.99518578 6.50799121 0 0 Z " fill="#D6D7D9" transform="translate(70,160)"/>
<path d="M0 0 C8.62396205 -0.48661855 15.23800667 0.07519976 23 4 C22.01 4.66 21.02 5.32 20 6 C20.63808594 6.40992187 21.27617187 6.81984375 21.93359375 7.2421875 C22.75988281 7.78101562 23.58617187 8.31984375 24.4375 8.875 C25.26121094 9.40867187 26.08492187 9.94234375 26.93359375 10.4921875 C29 12 29 12 30 14 C26.50577615 13.19429304 23.14682647 12.08208283 19.75 10.9375 C18.67234375 10.57527344 17.5946875 10.21304688 16.484375 9.83984375 C15.66453125 9.56269531 14.8446875 9.28554687 14 9 C14 8.34 14 7.68 14 7 C12.12001388 4.23531453 10.90492641 3.98098528 7.5625 3.3125 C3.9319135 2.94174417 3.9319135 2.94174417 0 3 C0 2.01 0 1.02 0 0 Z " fill="#CACCCF" transform="translate(118,68)"/>
<path d="M0 0 C10.49629988 12.70727214 10.49629988 12.70727214 11.26171875 19.23046875 C11 21.0625 11 21.0625 10 24 C9.67 24.99 9.34 25.98 9 27 C8.731875 26.195625 8.46375 25.39125 8.1875 24.5625 C7.795625 23.716875 7.40375 22.87125 7 22 C6.01 21.67 5.02 21.34 4 21 C1.66903138 18.06963945 0.11476006 16.00988857 -0.3125 12.25 C0 10 0 10 1 8 C0.90276549 6.00978479 0.90276549 6.00978479 0.5625 3.875 C0.376875 2.59625 0.19125 1.3175 0 0 Z " fill="#CFD0D4" transform="translate(135,169)"/>
<path d="M0 0 C0.66 0.33 1.32 0.66 2 1 C2.33 1.99 2.66 2.98 3 4 C4.65 4.33 6.3 4.66 8 5 C7.525625 5.7425 7.05125 6.485 6.5625 7.25 C5.22130673 9.61050015 4.487688 11.36648477 4 14 C3.236875 13.814375 2.47375 13.62875 1.6875 13.4375 C-1.08967375 12.77180827 -1.08967375 12.77180827 -4 14 C-4.309375 12.88625 -4.61875 11.7725 -4.9375 10.625 C-5.82326483 7.2054845 -5.82326483 7.2054845 -7 5 C-5.824375 4.87625 -5.824375 4.87625 -4.625 4.75 C-1.85250896 4.27193661 -1.85250896 4.27193661 -0.6875 1.9375 C-0.460625 1.298125 -0.23375 0.65875 0 0 Z " fill="#F4ECEB" transform="translate(112,34)"/>
<path d="M0 0 C0 0.66 0 1.32 0 2 C-1.175625 2.0928125 -1.175625 2.0928125 -2.375 2.1875 C-3.24125 2.455625 -4.1075 2.72375 -5 3 C-5.27328125 3.79535156 -5.5465625 4.59070313 -5.828125 5.41015625 C-7 8 -7 8 -9.4609375 9.328125 C-10.42257813 9.63234375 -11.38421875 9.9365625 -12.375 10.25 C-13.80972656 10.72179687 -13.80972656 10.72179687 -15.2734375 11.203125 C-17.50733215 11.85601112 -19.73581369 12.46346296 -22 13 C-19.13463296 8.92236229 -16.56958375 6.97322935 -12 5 C-13.32 4.34 -14.64 3.68 -16 3 C-10.21782606 -0.05498079 -6.4410036 -1.64451156 0 0 Z " fill="#D2D3D6" transform="translate(100,69)"/>
<path d="M0 0 C0.99 0.99 1.98 1.98 3 3 C3.66 2.67 4.32 2.34 5 2 C5.67119549 3.4562545 6.33681807 4.91507867 7 6.375 C7.556875 7.59316406 7.556875 7.59316406 8.125 8.8359375 C9 11 9 11 9 13 C9.66 13 10.32 13 11 13 C11 11.35 11 9.7 11 8 C11.66 8.33 12.32 8.66 13 9 C13 12.3 13 15.6 13 19 C8.2540792 16.55513171 4.09173619 13.37509838 1 9 C0.17714666 5.97324708 -0.0496678 3.12907124 0 0 Z " fill="#D4D6D8" transform="translate(159,175)"/>
<path d="M0 0 C1.9375 0.6015625 1.9375 0.6015625 4 2 C4.6875 4.8984375 4.6875 4.8984375 5 8.375 C5.40822846 13.27190433 5.40822846 13.27190433 7.890625 17.3671875 C10.28558284 19.22106227 12.01711542 19.66856838 15 20 C14.67 20.66 14.34 21.32 14 22 C11.3125 22.3125 11.3125 22.3125 8 22 C5.125 19.5 5.125 19.5 3 17 C3 18.32 3 19.64 3 21 C1 20 1 20 0 17 C-0.07973476 15.66474283 -0.10771338 14.32587917 -0.09765625 12.98828125 C-0.09443359 12.23095703 -0.09121094 11.47363281 -0.08789062 10.69335938 C-0.07951172 9.90767578 -0.07113281 9.12199219 -0.0625 8.3125 C-0.05798828 7.51521484 -0.05347656 6.71792969 -0.04882812 5.89648438 C-0.0370585 3.93095743 -0.01912348 1.96546915 0 0 Z " fill="#CFD0D4" transform="translate(72,106)"/>
<path d="M0 0 C3.98654283 1.32884761 6.39140753 2.67997322 9 6 C9.87750509 8.83264802 10.28636743 11.69156429 10.6875 14.625 C11.30368267 19.96971988 11.30368267 19.96971988 13 25 C8.75153925 24.52794881 6.73180712 22.11122478 4 19 C4 18.34 4 17.68 4 17 C4.99 17 5.98 17 7 17 C6.02685284 10.46393695 4.48615084 6.84032064 0 2 C0 1.34 0 0.68 0 0 Z " fill="#EC5F14" transform="translate(114,113)"/>
<path d="M0 0 C5.97646444 5.82322176 5.97646444 5.82322176 6.0625 10.125 C6.041875 11.07375 6.02125 12.0225 6 13 C4.56589632 13.24954005 3.12739928 13.47392642 1.6875 13.6875 C0.88699219 13.81511719 0.08648437 13.94273438 -0.73828125 14.07421875 C-3 14 -3 14 -4.79296875 12.51953125 C-5.19128906 12.01808594 -5.58960937 11.51664063 -6 11 C-5.01 10.67 -4.02 10.34 -3 10 C-1.97299556 7.67108904 -1.97299556 7.67108904 -1.3125 4.9375 C-1.06113281 4.01839844 -0.80976562 3.09929687 -0.55078125 2.15234375 C-0.36902344 1.44207031 -0.18726562 0.73179688 0 0 Z " fill="#C5C7CB" transform="translate(95,104)"/>
<path d="M0 0 C-1.24222889 2.58797685 -2.58867007 4.93494658 -4.125 7.375 C-6.04816398 10.67287009 -6.37559475 13.15015379 -6 17 C-5.34 17 -4.68 17 -4 17 C-4.66 18.32 -5.32 19.64 -6 21 C-6.66 21 -7.32 21 -8 21 C-8.66 22.32 -9.32 23.64 -10 25 C-10.99 24.67 -11.98 24.34 -13 24 C-12.01 22.515 -12.01 22.515 -11 21 C-10.61593116 18.36082284 -10.61593116 18.36082284 -10.5 15.5 C-10.29346423 11.65843462 -10.1889555 10.28343324 -8 7 C-7.34 5.96875 -6.68 4.9375 -6 3.875 C-3.30434783 0 -3.30434783 0 0 0 Z " fill="#D05C16" transform="translate(111,113)"/>
<path d="M0 0 C0.66 0.33 1.32 0.66 2 1 C0.84870075 11.77409891 0.84870075 11.77409891 -2.25 16.25 C-5.55135361 18.35086139 -7.15721291 18.65409142 -11 18 C-13.375 16.625 -13.375 16.625 -15 15 C-15 14.34 -15 13.68 -15 13 C-14.22914063 13.03480469 -13.45828125 13.06960937 -12.6640625 13.10546875 C-11.15972656 13.14607422 -11.15972656 13.14607422 -9.625 13.1875 C-8.62726563 13.22230469 -7.62953125 13.25710937 -6.6015625 13.29296875 C-5.31378906 13.14794922 -5.31378906 13.14794922 -4 13 C-1.70986347 9.5647952 -1.82157027 8.014669 -2 4 C-3.32 4.33 -4.64 4.66 -6 5 C-2.25 1.125 -2.25 1.125 0 0 Z " fill="#10112E" transform="translate(148,108)"/>
<path d="M0 0 C3 2 3 2 3.67919922 3.83813477 C4.01781554 6.12005828 4.1294981 8.28278544 4.1328125 10.58984375 C4.13410156 11.45673828 4.13539062 12.32363281 4.13671875 13.21679688 C4.13285156 14.11462891 4.12898438 15.01246094 4.125 15.9375 C4.12886719 16.83146484 4.13273437 17.72542969 4.13671875 18.64648438 C4.1304223 22.88714097 4.08681103 26.86839297 3 31 C2.67 31 2.34 31 2 31 C-0.38776806 9.39260417 -0.38776806 9.39260417 0 0 Z " fill="#F4EFEF" transform="translate(30,41)"/>
<path d="M0 0 C1.15628906 0.63228516 1.15628906 0.63228516 2.3359375 1.27734375 C3.33882813 1.82519531 4.34171875 2.37304688 5.375 2.9375 C6.37273437 3.48277344 7.37046875 4.02804688 8.3984375 4.58984375 C9.92070346 5.4149759 11.45128783 6.22564391 13 7 C12 10 12 10 10 11 C4.60521739 11.45913043 4.60521739 11.45913043 2.1875 9.625 C-0.20263961 6.35428264 -0.08688392 3.99666044 0 0 Z " fill="#EBE8EA" transform="translate(78,111)"/>
<path d="M0 0 C2.4335253 3.65028795 2.26530734 6.34923281 2.1875 10.5625 C2.18105469 11.27470703 2.17460937 11.98691406 2.16796875 12.72070312 C2.08887804 18.18290522 1.72915579 23.58341409 1 29 C0.34 29 -0.32 29 -1 29 C-1.33 29.99 -1.66 30.98 -2 32 C-2.34910893 21.1970182 -1.26699248 10.71287388 0 0 Z " fill="#F4F4F7" transform="translate(192,48)"/>
<path d="M0 0 C0.66 0 1.32 0 2 0 C2.32001346 9.76041066 1.11306313 19.32032595 0 29 C-0.33 29 -0.66 29 -1 29 C-1.9802248 23.31160882 -2.11948801 17.82705667 -2.0625 12.0625 C-2.05573242 10.75055664 -2.05573242 10.75055664 -2.04882812 9.41210938 C-2.03714834 7.27470953 -2.01921689 5.13734537 -2 3 C-1.34 3 -0.68 3 0 3 C0 2.01 0 1.02 0 0 Z " fill="#F2F1F2" transform="translate(191,77)"/>
<path d="M0 0 C1.76462683 3.08809695 2 4.23312136 2 8 C1.01 8 0.02 8 -1 8 C-0.01 8.99 0.98 9.98 2 11 C2.66 9.02 3.32 7.04 4 5 C5.1615882 8.48476459 4.77669581 9.67248371 3.75 13.125 C3.49734375 14.01445312 3.2446875 14.90390625 2.984375 15.8203125 C2.65953125 16.53960937 2.3346875 17.25890625 2 18 C1.01 18.33 0.02 18.66 -1 19 C-1 17.68 -1 16.36 -1 15 C-1.66 16.32 -2.32 17.64 -3 19 C-3.33 19 -3.66 19 -4 19 C-4.42446917 12.63296252 -3.01472942 7.03374925 -1 1 C-0.67 0.67 -0.34 0.34 0 0 Z " fill="#E0E2E7" transform="translate(65,135)"/>
<path d="M0 0 C0.66 0 1.32 0 2 0 C2.3772929 7.72751747 2.58255942 13.90564637 -2.75 20 C-6.03531737 21.46014106 -8.5592883 20.72784286 -12 20 C-12 19.67 -12 19.34 -12 19 C-10.906875 18.79375 -9.81375 18.5875 -8.6875 18.375 C-4.89147359 17.34445227 -4.89147359 17.34445227 -3.125 14.4375 C-1.95988753 10.87743412 -1.47661019 7.6725426 -1.2109375 3.953125 C-1 2 -1 2 0 0 Z " fill="#C1C2C7" transform="translate(150,107)"/>
<path d="M0 0 C2.44050422 2.16735579 2.95805771 2.72634375 3.4765625 6.109375 C3.52554688 7.31078125 3.57453125 8.5121875 3.625 9.75 C3.86953044 14.570743 4.20694031 19.24164187 5 24 C4.01 24 3.02 24 2 24 C0.22330777 20.93843346 -0.24050818 18.75963785 -0.1953125 15.234375 C-0.18886719 14.34492188 -0.18242188 13.45546875 -0.17578125 12.5390625 C-0.15902344 11.61867187 -0.14226563 10.69828125 -0.125 9.75 C-0.11597656 8.81414062 -0.10695312 7.87828125 -0.09765625 6.9140625 C-0.07413636 4.60911343 -0.04126853 2.3046884 0 0 Z " fill="#F2F1F4" transform="translate(35,118)"/>
<path d="M0 0 C0.66 0.33 1.32 0.66 2 1 C0 4 0 4 -1 5 C-1.24492203 7.74403381 -1.38385297 10.4869967 -1.5234375 13.23828125 C-2.04911413 16.28462043 -2.97002093 17.71491661 -5 20 C-5.99 19.67 -6.98 19.34 -8 19 C-8 18.67 -8 18.34 -8 18 C-10.97 17.67 -13.94 17.34 -17 17 C-17 16.67 -17 16.34 -17 16 C-16.21753906 15.95101562 -15.43507813 15.90203125 -14.62890625 15.8515625 C-13.61699219 15.77679688 -12.60507813 15.70203125 -11.5625 15.625 C-10.55316406 15.55539063 -9.54382813 15.48578125 -8.50390625 15.4140625 C-7.26447266 15.20910156 -7.26447266 15.20910156 -6 15 C-4.51662714 12.03325429 -4.94340563 9.28247334 -5 6 C-5 4.68 -5 3.36 -5 2 C-2.625 0.9375 -2.625 0.9375 0 0 Z " fill="#120C2D" transform="translate(103,118)"/>
<path d="M0 0 C0.33 1.32 0.66 2.64 1 4 C0.34 4 -0.32 4 -1 4 C-0.690625 4.99 -0.38125 5.98 -0.0625 7 C1.35034083 11.9299127 2 16.86305338 2 22 C0.84669053 20.42210402 -0.29737927 18.8374518 -1.4375 17.25 C-2.07558594 16.36828125 -2.71367187 15.4865625 -3.37109375 14.578125 C-4.83337114 12.26372914 -5.76980596 10.71510916 -6 8 C-5.34 7.34 -4.68 6.68 -4 6 C-3.30251417 4.68252676 -2.63040043 3.35085807 -2 2 C-1.34 2.33 -0.68 2.66 0 3 C0 2.01 0 1.02 0 0 Z " fill="#838490" transform="translate(163,146)"/>
<path d="M0 0 C0.66 0 1.32 0 2 0 C1.47327573 4.03119644 0.42327642 6.13732125 -2.3125 9.125 C-3.20388672 10.11886719 -3.20388672 10.11886719 -4.11328125 11.1328125 C-5.99856555 12.9985804 -7.73346044 14.6156465 -10 16 C-10.99 15.67 -11.98 15.34 -13 15 C-11.57621053 11.63602074 -9.87389574 9.80356448 -7.0625 7.5 C-4.84958877 5.68003563 -3.07108393 4.09682416 -1.37109375 1.78125 C-0.91863281 1.1934375 -0.46617187 0.605625 0 0 Z " fill="#EAEAED" transform="translate(183,145)"/>
<path d="M0 0 C7.31496426 5.4862232 7.89631945 15.68093902 9.25 24.375 C9.50937029 26.24872678 9.7630748 28.12330305 10 30 C9.34 30 8.68 30 8 30 C7.87882813 29.21753906 7.75765625 28.43507812 7.6328125 27.62890625 C7.46523437 26.61699219 7.29765625 25.60507813 7.125 24.5625 C6.96257812 23.55316406 6.80015625 22.54382813 6.6328125 21.50390625 C6.42398438 20.67761719 6.21515625 19.85132813 6 19 C5.34 18.67 4.68 18.34 4 18 C3.3671875 16.15234375 3.3671875 16.15234375 2.875 13.9375 C2.62363281 12.83728516 2.62363281 12.83728516 2.3671875 11.71484375 C2.24601563 11.14894531 2.12484375 10.58304688 2 10 C1.67 10 1.34 10 1 10 C0.67 6.7 0.34 3.4 0 0 Z M6 30 C6.99 30.495 6.99 30.495 8 31 C7.01 31.495 7.01 31.495 6 32 C6 31.34 6 30.68 6 30 Z " fill="#E0E1E4" transform="translate(139,158)"/>
<path d="M0 0 C0.33 0.99 0.66 1.98 1 3 C-0.65 3 -2.3 3 -4 3 C-1.79033067 9.12622469 -1.79033067 9.12622469 1 15 C0.34 15.66 -0.32 16.32 -1 17 C-4.875 11.375 -4.875 11.375 -6 8 C-6.66 8.66 -7.32 9.32 -8 10 C-8 8.35 -8 6.7 -8 5 C-8.66 4.67 -9.32 4.34 -10 4 C-6.58908673 0.88145073 -4.68377325 -0.53528837 0 0 Z " fill="#817F8B" transform="translate(85,132)"/>
<path d="M0 0 C1.65 0 3.3 0 5 0 C5 0.99 5 1.98 5 3 C5.845625 3.185625 6.69125 3.37125 7.5625 3.5625 C12.09509046 5.45794692 14.74687672 8.40039022 18 12 C17.67 12.66 17.34 13.32 17 14 C16.51789063 13.50628906 16.03578125 13.01257813 15.5390625 12.50390625 C14.90742187 11.86324219 14.27578125 11.22257813 13.625 10.5625 C12.99851562 9.92441406 12.37203125 9.28632813 11.7265625 8.62890625 C10.08276939 6.92117824 10.08276939 6.92117824 8 6 C7.67 6.99 7.34 7.98 7 9 C5.82460004 8.07347299 4.65989423 7.13336613 3.5 6.1875 C2.52546875 5.40439453 2.52546875 5.40439453 1.53125 4.60546875 C0 3 0 3 0 0 Z " fill="#C05D1C" transform="translate(81,135)"/>
<path d="M0 0 C0.33 0 0.66 0 1 0 C0.67 3.63 0.34 7.26 0 11 C-0.33 11 -0.66 11 -1 11 C-1.433125 12.6396875 -1.433125 12.6396875 -1.875 14.3125 C-3.05332259 18.17477961 -4.77508084 20.66262126 -7 24 C-6.88570603 22.22844346 -6.75816963 20.45773771 -6.625 18.6875 C-6.55539063 17.70136719 -6.48578125 16.71523437 -6.4140625 15.69921875 C-6 13 -6 13 -4 10 C-3.29187186 7.67891331 -2.61975848 5.34622853 -2 3 C-1.34 3 -0.68 3 0 3 C0 2.01 0 1.02 0 0 Z " fill="#E1E3E6" transform="translate(85,158)"/>
<path d="M0 0 C0.20145347 3.49186021 0.34907805 6.19917389 -1.0625 9.4375 C-3.95038552 11.76643994 -6.41576962 11.27050795 -10 11 C-10.66 9.68 -11.32 8.36 -12 7 C-9.69 7 -7.38 7 -5 7 C-4.566875 5.5459375 -4.566875 5.5459375 -4.125 4.0625 C-2.63265306 0 -2.63265306 0 0 0 Z " fill="#E0DEE1" transform="translate(147,111)"/>
<path d="M0 0 C0.33 0 0.66 0 1 0 C1.34516053 5.40176228 0.09439069 9.79018644 -1.5 14.875 C-1.73847656 15.65875 -1.97695312 16.4425 -2.22265625 17.25 C-2.80769893 19.16894 -3.40283251 21.08479854 -4 23 C-5.32 22.67 -6.64 22.34 -8 22 C-7.34 19.03 -6.68 16.06 -6 13 C-5.34 13 -4.68 13 -4 13 C-2.68 8.71 -1.36 4.42 0 0 Z " fill="#1D1833" transform="translate(67,121)"/>
<path d="M0 0 C0.33 3.96 0.66 7.92 1 12 C0.34 12 -0.32 12 -1 12 C-1.28875 12.639375 -1.5775 13.27875 -1.875 13.9375 C-3 16 -3 16 -5 17 C-5.33 13.7 -5.66 10.4 -6 7 C-5.34 8.32 -4.68 9.64 -4 11 C-3.95101562 10.28972656 -3.90203125 9.57945313 -3.8515625 8.84765625 C-3.77679688 7.92855469 -3.70203125 7.00945312 -3.625 6.0625 C-3.55539063 5.14597656 -3.48578125 4.22945313 -3.4140625 3.28515625 C-3.27742187 2.53105469 -3.14078125 1.77695313 -3 1 C-1 0 -1 0 0 0 Z " fill="#272744" transform="translate(163,113)"/>
<path d="M0 0 C2.97793335 0.42541905 4.92530835 0.95331772 7.5 2.5625 C10.28155668 4.16189509 11.84930659 4.27005944 15 4 C15 4.66 15 5.32 15 6 C13.68 6 12.36 6 11 6 C10.938125 6.598125 10.87625 7.19625 10.8125 7.8125 C9.6763243 10.87143458 7.82669858 11.55041099 5 13 C5 12.01 5 11.02 5 10 C3.68 9.67 2.36 9.34 1 9 C2.134375 8.71125 3.26875 8.4225 4.4375 8.125 C5.613125 7.75375 6.78875 7.3825 8 7 C8.33 6.34 8.66 5.68 9 5 C8.2575 4.731875 7.515 4.46375 6.75 4.1875 C4.13363446 3.05770579 2.19812889 1.79106798 0 0 Z " fill="#13112A" transform="translate(82,113)"/>
<path d="M0 0 C1.98 0.495 1.98 0.495 4 1 C3.67 7.93 3.34 14.86 3 22 C2.67 22 2.34 22 2 22 C1.47017156 18.52214039 0.95264814 15.04256189 0.4375 11.5625 C0.28603516 10.56927734 0.13457031 9.57605469 -0.02148438 8.55273438 C-0.16005859 7.60849609 -0.29863281 6.66425781 -0.44140625 5.69140625 C-0.57232666 4.81685791 -0.70324707 3.94230957 -0.83813477 3.04125977 C-0.89155029 2.36764404 -0.94496582 1.69402832 -1 1 C-0.67 0.67 -0.34 0.34 0 0 Z " fill="#EAE6E9" transform="translate(192,38)"/>
<path d="M0 0 C0.33 0.99 0.66 1.98 1 3 C1.66 3 2.32 3 3 3 C3 7.29 3 11.58 3 16 C2.01 16 1.02 16 0 16 C-1.47421517 12.18438427 -2.33945604 9.89659938 -1 6 C-0.65421232 4.00211562 -0.31856451 2.00240549 0 0 Z " fill="#03052B" transform="translate(161,122)"/>
<path d="M0 0 C0.103125 0.639375 0.20625 1.27875 0.3125 1.9375 C0.539375 2.618125 0.76625 3.29875 1 4 C1.99 4.33 2.98 4.66 4 5 C2.515 7.475 2.515 7.475 1 10 C-0.98 9.34 -2.96 8.68 -5 8 C-5 6.02 -5 4.04 -5 2 C-3.35 1.34 -1.7 0.68 0 0 Z " fill="#F4E9E7" transform="translate(130,40)"/>
<path d="M0 0 C1.98 0.66 3.96 1.32 6 2 C6 3.98 6 5.96 6 8 C4.02 8.66 2.04 9.32 0 10 C-0.33 9.01 -0.66 8.02 -1 7 C-1.66 6.34 -2.32 5.68 -3 5 C-2.01 4.67 -1.02 4.34 0 4 C0 2.68 0 1.36 0 0 Z " fill="#F4EAE8" transform="translate(94,40)"/>
<path d="M0 0 C2.10353495 -0.0810206 4.20795952 -0.13919907 6.3125 -0.1875 C7.48425781 -0.22230469 8.65601562 -0.25710937 9.86328125 -0.29296875 C13 0 13 0 14.91796875 1.51171875 C15.27503906 2.00285156 15.63210937 2.49398437 16 3 C14.3125 4.125 14.3125 4.125 12 5 C10.33032028 4.3409159 8.66392045 3.67349161 7 3 C3.77171763 3.30087716 3.77171763 3.30087716 1 4 C0.67 2.68 0.34 1.36 0 0 Z " fill="#D9DBDC" transform="translate(118,68)"/>
<path d="M0 0 C0.99 0 1.98 0 3 0 C3.66 1.32 4.32 2.64 5 4 C2.14723863 6.93200474 -0.65079784 9.64315404 -4 12 C-3.33501617 7.61110675 -1.81242323 4.0188515 0 0 Z " fill="#D2D3D6" transform="translate(60,180)"/>
<path d="M0 0 C1.79275866 3.11910856 2.34290718 5.67682428 2.625 9.25 C2.69976562 10.14203125 2.77453125 11.0340625 2.8515625 11.953125 C2.90054688 12.62859375 2.94953125 13.3040625 3 14 C1.68 13.67 0.36 13.34 -1 13 C-1.33 9.7 -1.66 6.4 -2 3 C-1.34 3 -0.68 3 0 3 C0 2.01 0 1.02 0 0 Z " fill="#D4D5DB" transform="translate(160,135)"/>
<path d="M0 0 C0.66 0.33 1.32 0.66 2 1 C2 2.65 2 4.3 2 6 C0.37509046 6.02698189 -1.24994633 6.04638757 -2.875 6.0625 C-3.77992187 6.07410156 -4.68484375 6.08570313 -5.6171875 6.09765625 C-8 6 -8 6 -10 5 C-10 5.66 -10 6.32 -10 7 C-11.32 6.67 -12.64 6.34 -14 6 C-13.67 5.34 -13.34 4.68 -13 4 C-11.783125 4.0825 -10.56625 4.165 -9.3125 4.25 C-5.83360474 4.27471684 -5.06167336 4.04111557 -2 2 C-1.34 1.34 -0.68 0.68 0 0 Z " fill="#F3F5FB" transform="translate(93,124)"/>
<path d="M0 0 C0.33 0 0.66 0 1 0 C1 6.27 1 12.54 1 19 C-0.65 17.68 -2.3 16.36 -4 15 C-3.69255859 14.00419922 -3.69255859 14.00419922 -3.37890625 12.98828125 C-3.10949219 12.10527344 -2.84007813 11.22226563 -2.5625 10.3125 C-2.29566406 9.44238281 -2.02882813 8.57226562 -1.75390625 7.67578125 C-1.03655471 5.12974079 -0.482459 2.5996577 0 0 Z " fill="#B5B6BE" transform="translate(118,173)"/>
<path d="M0 0 C0.33 0 0.66 0 1 0 C1.12375 1.051875 1.2475 2.10375 1.375 3.1875 C1.81661591 6.87070383 1.81661591 6.87070383 3.125 9.5625 C4.2476233 12.68980776 3.74190281 14.80981792 3 18 C2.01 18.33 1.02 18.66 0 19 C0 12.73 0 6.46 0 0 Z " fill="#DCDDDE" transform="translate(155,163)"/>
<path d="M0 0 C0.33 0.66 0.66 1.32 1 2 C-0.10281127 3.27200971 -1.20730769 4.54255853 -2.3125 5.8125 C-2.92738281 6.52019531 -3.54226562 7.22789062 -4.17578125 7.95703125 C-7.44911047 11.6228796 -7.44911047 11.6228796 -9 13 C-9.66 13 -10.32 13 -11 13 C-9.97065637 6.97098731 -6.57790087 4.73026846 -1.8984375 1.3203125 C-1.27195313 0.88460937 -0.64546875 0.44890625 0 0 Z " fill="#0A092B" transform="translate(142,140)"/>
<path d="M0 0 C-0.33 0.99 -0.66 1.98 -1 3 C-3.36328125 4.1328125 -3.36328125 4.1328125 -6.3125 5.125 C-7.27800781 5.45757812 -8.24351563 5.79015625 -9.23828125 6.1328125 C-11.4835119 6.83782127 -13.70918878 7.46674703 -16 8 C-11.73727172 1.93380976 -7.47279171 -0.53377084 0 0 Z " fill="#D1D2D5" transform="translate(94,74)"/>
<path d="M0 0 C-1.81309003 3.77727089 -3.9073259 7.37269822 -6 11 C-6.66 11 -7.32 11 -8 11 C-8.33 11.99 -8.66 12.98 -9 14 C-9.625 12.1875 -9.625 12.1875 -10 10 C-9.34 9.01 -8.68 8.02 -8 7 C-7.34 5.96875 -6.68 4.9375 -6 3.875 C-3.30434783 0 -3.30434783 0 0 0 Z " fill="#E15C16" transform="translate(111,113)"/>
<path d="M0 0 C1.85772162 0.08984301 3.71247985 0.24611861 5.5625 0.4375 C7.08037109 0.59025391 7.08037109 0.59025391 8.62890625 0.74609375 C9.80259766 0.87177734 9.80259766 0.87177734 11 1 C8.35684192 3.64997034 7.14884659 3.9969914 3.328125 4.07421875 C1.96727774 3.96191582 0.60775103 3.832515 -0.75 3.6875 C-1.44738281 3.62626953 -2.14476563 3.56503906 -2.86328125 3.50195312 C-4.57689681 3.34937092 -6.2886995 3.17666411 -8 3 C-8 2.67 -8 2.34 -8 2 C-6.865625 1.855625 -5.73125 1.71125 -4.5625 1.5625 C-1.19222799 1.38828522 -1.19222799 1.38828522 0 0 Z " fill="#EDE0DE" transform="translate(129,16)"/>
<path d="M0 0 C0.33 0 0.66 0 1 0 C1.66 2.64 2.32 5.28 3 8 C6.3 8.33 9.6 8.66 13 9 C13 9.33 13 9.66 13 10 C11.01432292 10.48828125 9.02864583 10.9765625 7.04296875 11.46484375 C5.34316798 11.91010705 3.66698046 12.44433985 2 13 C0 11 0 11 -0.1953125 8.3984375 C-0.17210938 7.40070313 -0.14890625 6.40296875 -0.125 5.375 C-0.10695313 4.37210938 -0.08890625 3.36921875 -0.0703125 2.3359375 C-0.04710938 1.56507812 -0.02390625 0.79421875 0 0 Z " fill="#0F0828" transform="translate(125,125)"/>
<path d="M0 0 C0.33 0.66 0.66 1.32 1 2 C1.99 2.33 2.98 2.66 4 3 C3.72285156 3.59167969 3.44570312 4.18335938 3.16015625 4.79296875 C0.44225847 10.69046431 0.44225847 10.69046431 -1 17 C-2.87978657 14.26822383 -3.01655381 13.11615725 -2.5390625 9.765625 C-2.23742187 8.60546875 -1.93578125 7.4453125 -1.625 6.25 C-1.18027344 4.49429688 -1.18027344 4.49429688 -0.7265625 2.703125 C-0.48679687 1.81109375 -0.24703125 0.9190625 0 0 Z " fill="#2F1C31" transform="translate(119,161)"/>
<path d="M0 0 C0.33 0 0.66 0 1 0 C1.48979592 7.34693878 1.48979592 7.34693878 -0.6875 10.25 C-1.450625 10.8275 -2.21375 11.405 -3 12 C-3.9075 12.7425 -4.815 13.485 -5.75 14.25 C-6.4925 14.8275 -7.235 15.405 -8 16 C-8.66 15.67 -9.32 15.34 -10 15 C-9.52949219 14.5875 -9.05898437 14.175 -8.57421875 13.75 C-3.95441179 9.46496166 -1.80054081 6.03710741 0 0 Z " fill="#ADACB4" transform="translate(144,136)"/>
<path d="M0 0 C3.93008778 1.31002926 6.47778544 2.66707362 9 6 C9.75 9.75 9.75 9.75 10 13 C9.67 12.01 9.34 11.02 9 10 C8.01 10 7.02 10 6 10 C3.62837691 6.83783588 1.65593745 3.58786447 0 0 Z " fill="#DF5C15" transform="translate(114,113)"/>
<path d="M0 0 C-1.5056807 3.83264178 -3.76831262 5.537762 -7 8 C-8.35147138 9.31494512 -9.69112542 10.64264858 -11 12 C-10.55090939 10.51800098 -10.09043436 9.03944764 -9.625 7.5625 C-9.36976562 6.73878906 -9.11453125 5.91507813 -8.8515625 5.06640625 C-8 3 -8 3 -6 2 C-5.67 2.33 -5.34 2.66 -5 3 C-4.319375 2.2575 -4.319375 2.2575 -3.625 1.5 C-2 0 -2 0 0 0 Z " fill="#C65A1A" transform="translate(134,145)"/>
<path d="M0 0 C0.99 0.2165625 0.99 0.2165625 2 0.4375 C5.65599551 1.12299916 9.30622195 1.56175515 13 2 C11.875 3.5 11.875 3.5 10 5 C6.53432593 5.44242648 4.66785463 5.38665268 1.625 3.625 C1.08875 3.08875 0.5525 2.5525 0 2 C0 1.34 0 0.68 0 0 Z " fill="#07092C" transform="translate(133,121)"/>
<path d="M0 0 C1.96301592 3.50538557 2.95902388 7.13351728 4 11 C2.35 12.32 0.7 13.64 -1 15 C-0.67 13.02 -0.34 11.04 0 9 C-0.33 9 -0.66 9 -1 9 C-1.125 2.25 -1.125 2.25 0 0 Z " fill="#CACBCF" transform="translate(107,177)"/>
<path d="M0 0 C0.99 0 1.98 0 3 0 C3.268125 0.763125 3.53625 1.52625 3.8125 2.3125 C4.78263638 4.99212054 4.78263638 4.99212054 6.5625 6.4375 C8.6576525 8.71483967 8.66634356 10.99709203 9 14 C4.9918197 10.32583472 2.47408385 6.85653496 0 2 C0 1.34 0 0.68 0 0 Z " fill="#999AA4" transform="translate(157,154)"/>
<path d="M0 0 C0.33 0.99 0.66 1.98 1 3 C-0.5 5.625 -0.5 5.625 -3 8 C-6.625 8.9375 -6.625 8.9375 -10 9 C-10.66 8.34 -11.32 7.68 -12 7 C-10.948125 6.773125 -9.89625 6.54625 -8.8125 6.3125 C-4.8402094 5.20639469 -2.70400363 3.11370115 0 0 Z " fill="#CDCED2" transform="translate(150,119)"/>
<path d="M0 0 C4.50802601 1.25805377 7.4912812 2.90407165 11 6 C10.67 6.99 10.34 7.98 10 9 C9.55269531 8.6390625 9.10539063 8.278125 8.64453125 7.90625 C4.76135613 4.86557578 4.76135613 4.86557578 0.0625 3.6875 C-0.618125 3.790625 -1.29875 3.89375 -2 4 C-2 2 -2 2 0 0 Z " fill="#797A89" transform="translate(146,87)"/>
<path d="M0 0 C0 0.99 0 1.98 0 3 C-6.28571429 5.42857143 -6.28571429 5.42857143 -10 4 C-7.16124653 -0.25813021 -4.8137938 -0.13010254 0 0 Z " fill="#ECECEF" transform="translate(70,22)"/>
<path d="M0 0 C0 0.99 0 1.98 0 3 C-5.95703125 4.07421875 -5.95703125 4.07421875 -8 4 C-9.76171875 2.51953125 -9.76171875 2.51953125 -11 1 C-9.5437328 0.63743142 -8.08488815 0.28520207 -6.625 -0.0625 C-5.40683594 -0.35833984 -5.40683594 -0.35833984 -4.1640625 -0.66015625 C-2 -1 -2 -1 0 0 Z " fill="#E5DDDE" transform="translate(79,20)"/>
<path d="M0 0 C-3.01887244 3.48331435 -5.56909529 4.79157144 -10 6 C-10 4.68 -10 3.36 -10 2 C-3.375 -1.125 -3.375 -1.125 0 0 Z " fill="#EFECEE" transform="translate(53,29)"/>
<path d="M0 0 C2.07237896 3.37160115 2.15324478 5.66269846 1.75 9.5625 C1.61851562 10.98755859 1.61851562 10.98755859 1.484375 12.44140625 C1 15 1 15 -1 18 C-1.95627638 13.54629322 -1.90623315 10.09182255 -1.0625 5.625 C-0.86785156 4.56539062 -0.67320312 3.50578125 -0.47265625 2.4140625 C-0.23869141 1.21910156 -0.23869141 1.21910156 0 0 Z " fill="#8C8E9A" transform="translate(158,175)"/>
<path d="M0 0 C0.99 0 1.98 0 3 0 C3.22245393 1.60226955 3.42746669 3.20696767 3.625 4.8125 C3.74101562 5.70582031 3.85703125 6.59914062 3.9765625 7.51953125 C4 10 4 10 2 13 C1.34 12.67 0.68 12.34 0 12 C0 11.34 0 10.68 0 10 C0.66 10 1.32 10 2 10 C1.505 8.63875 1.505 8.63875 1 7.25 C0 4 0 4 0 0 Z " fill="#E8E9EC" transform="translate(156,142)"/>
<path d="M0 0 C0.33 0 0.66 0 1 0 C3.32086397 5.324335 2.91457003 9.43842552 2 15 C-0.23605313 10.92034388 -0.63330451 7.62036312 -1 3 C-0.67 2.01 -0.34 1.02 0 0 Z " fill="#8D8E9A" transform="translate(66,176)"/>
<path d="M0 0 C1.1615882 3.48476459 0.77669581 4.67248371 -0.25 8.125 C-0.50265625 9.01445312 -0.7553125 9.90390625 -1.015625 10.8203125 C-1.50289063 11.89925781 -1.50289063 11.89925781 -2 13 C-2.99 13.33 -3.98 13.66 -5 14 C-5.25 7.375 -5.25 7.375 -3 4 C-2.67 4.66 -2.34 5.32 -2 6 C-1.34 4.02 -0.68 2.04 0 0 Z " fill="#DADCDF" transform="translate(69,140)"/>
<path d="M0 0 C0.33 0 0.66 0 1 0 C0.67 3.63 0.34 7.26 0 11 C-0.99 11 -1.98 11 -3 11 C-3.66 12.32 -4.32 13.64 -5 15 C-6.2077558 11.37673261 -5.54311128 10.35853631 -4 7 C-3.34 7 -2.68 7 -2 7 C-1.34 4.69 -0.68 2.38 0 0 Z " fill="#56586B" transform="translate(107,182)"/>
<path d="M0 0 C0 4.62213934 -0.22737147 8.13060267 -3.57421875 11.66015625 C-4.04472656 12.10230469 -4.51523437 12.54445312 -5 13 C-4.94004678 11.20739868 -4.8512759 9.41574205 -4.75 7.625 C-4.70359375 6.62726563 -4.6571875 5.62953125 -4.609375 4.6015625 C-4 2 -4 2 -1.953125 0.6484375 C-1.30859375 0.43445313 -0.6640625 0.22046875 0 0 Z " fill="#6D6F7D" transform="translate(60,166)"/>
<path d="M0 0 C0.33 0.66 0.66 1.32 1 2 C-2.78187881 3.83691257 -4.94568308 4.15837626 -9 3 C-6.38997624 -0.48003168 -4.1689578 -0.27793052 0 0 Z " fill="#F4F0F1" transform="translate(87,18)"/>
<path d="M0 0 C5.75 1.75 5.75 1.75 8 4 C4.37 4.33 0.74 4.66 -3 5 C-2.01 4.01 -1.02 3.02 0 2 C0 1.34 0 0.68 0 0 Z " fill="#B2B3BA" transform="translate(133,69)"/>
<path d="M0 0 C0.88935377 3.303314 1.46274105 6.62294375 2 10 C1.34 10 0.68 10 0 10 C-2.29013653 6.5647952 -2.17842973 5.014669 -2 1 C-1.34 0.67 -0.68 0.34 0 0 Z " fill="#A6A8B2" transform="translate(168,167)"/>
<path d="M0 0 C3 0 3 0 4.625 1.125 C6.47382935 3.64613093 6.65927797 5.93350175 7 9 C4.03595495 6.19195732 1.55500981 3.81684226 0 0 Z " fill="#9D4720" transform="translate(96,149)"/>
<path d="M0 0 C0.66 0 1.32 0 2 0 C2.6875 3.3125 2.6875 3.3125 3 7 C1.5625 8.9375 1.5625 8.9375 0 10 C-1.125 2.25 -1.125 2.25 0 0 Z " fill="#03062E" transform="translate(62,125)"/>
<path d="M0 0 C0.33 0 0.66 0 1 0 C1 3.96 1 7.92 1 12 C0.01 11.01 -0.98 10.02 -2 9 C-2.33 9 -2.66 9 -3 9 C-3 7.35 -3 5.7 -3 4 C-2.34 4 -1.68 4 -1 4 C-0.67 2.68 -0.34 1.36 0 0 Z " fill="#E0E1E7" transform="translate(159,115)"/>
<path d="M0 0 C0.625 1.875 0.625 1.875 1 4 C0.34 4.66 -0.32 5.32 -1 6 C-4.125 5.625 -4.125 5.625 -7 5 C-2.25 1.125 -2.25 1.125 0 0 Z " fill="#ED7517" transform="translate(143,113)"/>
<path d="M0 0 C0 0.66 0 1.32 0 2 C0.99 2.99 1.98 3.98 3 5 C-0.63 4.67 -4.26 4.34 -8 4 C-2.66666667 0 -2.66666667 0 0 0 Z " fill="#BDBEC4" transform="translate(92,69)"/>
<path d="M0 0 C0.33 0 0.66 0 1 0 C0.50769231 6.4 0.50769231 6.4 -2.0625 9.4375 C-3.0215625 10.2109375 -3.0215625 10.2109375 -4 11 C-4.66 10.67 -5.32 10.34 -6 10 C-5.34 8.68 -4.68 7.36 -4 6 C-3.01 6 -2.02 6 -1 6 C-0.67 4.02 -0.34 2.04 0 0 Z " fill="#E3E4E7" transform="translate(152,119)"/>
<path d="M0 0 C1.98 0.99 3.96 1.98 6 3 C6 3.99 6 4.98 6 6 C4.35 5.67 2.7 5.34 1 5 C0.67 3.35 0.34 1.7 0 0 Z " fill="#F17613" transform="translate(81,113)"/>
<path d="M0 0 C0.33 0.66 0.66 1.32 1 2 C1.99 2.33 2.98 2.66 4 3 C3.67 4.65 3.34 6.3 3 8 C1.68 7.67 0.36 7.34 -1 7 C-0.67 4.69 -0.34 2.38 0 0 Z " fill="#211732" transform="translate(64,104)"/>
<path d="M0 0 C1.9375 0.5 1.9375 0.5 4 2 C4.68790422 4.69658452 4.81946464 7.2017019 5 10 C3.0625 8.9375 3.0625 8.9375 1 7 C0.25 3.3125 0.25 3.3125 0 0 Z " fill="#616372" transform="translate(118,186)"/>
<path d="M0 0 C0.66 0.33 1.32 0.66 2 1 C2 4.3 2 7.6 2 11 C1.34 10.67 0.68 10.34 0 10 C-1.11421833 6.35346727 -0.94296589 3.66708957 0 0 Z " fill="#DEE0E6" transform="translate(170,183)"/>
<path d="M0 0 C0.33 0 0.66 0 1 0 C1.06058594 0.60328125 1.12117188 1.2065625 1.18359375 1.828125 C1.26738281 2.62734375 1.35117188 3.4265625 1.4375 4.25 C1.55931641 5.43335938 1.55931641 5.43335938 1.68359375 6.640625 C1.97634993 8.82364639 2.42064419 10.8773182 3 13 C2.34 13 1.68 13 1 13 C-2.225 6.765 -2.225 6.765 -1.0625 2.8125 C-0.711875 1.884375 -0.36125 0.95625 0 0 Z " fill="#2A2B47" transform="translate(91,178)"/>
<path d="M0 0 C0.33 1.98 0.66 3.96 1 6 C-0.32 6.33 -1.64 6.66 -3 7 C-3.33 5.02 -3.66 3.04 -4 1 C-1 0 -1 0 0 0 Z " fill="#1C1838" transform="translate(169,152)"/>
<path d="M0 0 C0.33 0.99 0.66 1.98 1 3 C1.2475 3.639375 1.495 4.27875 1.75 4.9375 C2 7 2 7 0.5625 9.25 C0.046875 9.8275 -0.46875 10.405 -1 11 C-2.1875 9.4375 -2.1875 9.4375 -3 7 C-1.625 3.25 -1.625 3.25 0 0 Z " fill="#5B5C70" transform="translate(64,148)"/>
<path d="M0 0 C2.31 0.33 4.62 0.66 7 1 C7 1.99 7 2.98 7 4 C4.69 3.67 2.38 3.34 0 3 C0 2.01 0 1.02 0 0 Z " fill="#040629" transform="translate(80,122)"/>
<path d="M0 0 C-1.65 1.65 -3.3 3.3 -5 5 C-5.33 4.01 -5.66 3.02 -6 2 C-8.01508358 1.26676204 -8.01508358 1.26676204 -10 1 C-6.59437148 0.22157062 -3.49234244 -0.09978121 0 0 Z " fill="#1C1E3D" transform="translate(93,121)"/>
<path d="M0 0 C0.33 0 0.66 0 1 0 C1 5.28 1 10.56 1 16 C0.67 16 0.34 16 0 16 C-0.38971999 13.89850989 -0.76131477 11.7936518 -1.125 9.6875 C-1.33382812 8.51574219 -1.54265625 7.34398437 -1.7578125 6.13671875 C-2 3 -2 3 0 0 Z " fill="#D5D6DD" transform="translate(194,44)"/>
<path d="M0 0 C1.9451 2.91765 2.45276317 4.62537285 3 8 C1.68 8 0.36 8 -1 8 C-1.625 5.6875 -1.625 5.6875 -2 3 C-1.34 2.01 -0.68 1.02 0 0 Z " fill="#D2D3D6" transform="translate(121,183)"/>
<path d="M0 0 C0 3.9519815 -1.37176172 5.14648416 -4 8 C-4.99 8.33 -5.98 8.66 -7 9 C-5.44499019 5.18315774 -2.96404505 2.80804268 0 0 Z " fill="#D3D5DA" transform="translate(65,163)"/>
<path d="M0 0 C0.309375 0.639375 0.61875 1.27875 0.9375 1.9375 C1.8345163 3.93610821 1.8345163 3.93610821 3 5 C3.04063832 6.66617115 3.042721 8.33388095 3 10 C2.01 10.495 2.01 10.495 1 11 C1 10.01 1 9.02 1 8 C0.34 8 -0.32 8 -1 8 C-0.67 5.36 -0.34 2.72 0 0 Z " fill="#B1B3BB" transform="translate(60,151)"/>
<path d="M0 0 C0.66 0 1.32 0 2 0 C1.4375 1.9375 1.4375 1.9375 0 4 C-3.625 4.75 -3.625 4.75 -7 5 C-7.33 4.34 -7.66 3.68 -8 3 C-6.865625 2.690625 -5.73125 2.38125 -4.5625 2.0625 C-1.21224901 1.37075469 -1.21224901 1.37075469 0 0 Z " fill="#E2E3E8" transform="translate(137,91)"/>
<path d="M0 0 C0.66 0 1.32 0 2 0 C2 3.3 2 6.6 2 10 C1.67 9.01 1.34 8.02 1 7 C0.34 7 -0.32 7 -1 7 C-0.67 4.69 -0.34 2.38 0 0 Z " fill="#D6D8DF" transform="translate(191,77)"/>
<path d="M0 0 C2.12508244 3.18762365 2.5020163 5.26512223 3 9 C1.35 7.68 -0.3 6.36 -2 5 C-1.34 3.35 -0.68 1.7 0 0 Z " fill="#C8C9CE" transform="translate(116,183)"/>
<path d="M0 0 C0.66 0 1.32 0 2 0 C2.20496094 0.55429688 2.40992187 1.10859375 2.62109375 1.6796875 C2.89050781 2.40414062 3.15992187 3.12859375 3.4375 3.875 C3.70433594 4.59429687 3.97117187 5.31359375 4.24609375 6.0546875 C4.97916854 8.03648845 4.97916854 8.03648845 6 10 C4.68 10 3.36 10 2 10 C1.34 6.7 0.68 3.4 0 0 Z " fill="#231C37" transform="translate(106,171)"/>
<path d="M0 0 C2.67927341 4.01891012 2.15601248 6.24161923 2 11 C0.4375 9.4375 0.4375 9.4375 -1 7 C-0.6875 3.25 -0.6875 3.25 0 0 Z " fill="#1F132B" transform="translate(105,160)"/>
<path d="M0 0 C0 3 0 3 -2 6 C-3.32 6 -4.64 6 -6 6 C-6 5.01 -6 4.02 -6 3 C-4.02 2.01 -2.04 1.02 0 0 Z " fill="#06082F" transform="translate(126,157)"/>
<path d="M0 0 C-0.33 2.64 -0.66 5.28 -1 8 C-1.99 8 -2.98 8 -4 8 C-3.74438677 5.6568787 -3.40729228 3.32156597 -3 1 C-1 0 -1 0 0 0 Z " fill="#080529" transform="translate(62,142)"/>
<path d="M0 0 C0.66 0.33 1.32 0.66 2 1 C2 3.31 2 5.62 2 8 C-0.5 6.625 -0.5 6.625 -3 5 C-3 4.34 -3 3.68 -3 3 C-2.01 3 -1.02 3 0 3 C0 2.01 0 1.02 0 0 Z " fill="#A3541E" transform="translate(121,127)"/>
<path d="M0 0 C0.66 0.33 1.32 0.66 2 1 C0 4 0 4 -2.625 4.6875 C-3.800625 4.8421875 -3.800625 4.8421875 -5 5 C-5 4.01 -5 3.02 -5 2 C-2.625 0.9375 -2.625 0.9375 0 0 Z " fill="#281830" transform="translate(103,118)"/>
<path d="M0 0 C2.31 0.33 4.62 0.66 7 1 C7 1.99 7 2.98 7 4 C5.35 4 3.7 4 2 4 C1.34 2.68 0.68 1.36 0 0 Z " fill="#F4F3F6" transform="translate(135,118)"/>
<path d="M0 0 C1.65 0 3.3 0 5 0 C5.33 0.99 5.66 1.98 6 3 C7.65 3.33 9.3 3.66 11 4 C9.125 5.0625 9.125 5.0625 7 6 C6.34 5.67 5.68 5.34 5 5 C5 4.01 5 3.02 5 2 C3.35 1.67 1.7 1.34 0 1 C0 0.67 0 0.34 0 0 Z " fill="#E8EAEE" transform="translate(124,71)"/>
<path d="M0 0 C2 3 2 3 1.625 6.1875 C1.41875 7.115625 1.2125 8.04375 1 9 C0.67 8.01 0.34 7.02 0 6 C-0.66 6 -1.32 6 -2 6 C-1.34 4.02 -0.68 2.04 0 0 Z " fill="#CCCDD1" transform="translate(104,183)"/>
<path d="M0 0 C0.33 0.99 0.66 1.98 1 3 C1.66 3 2.32 3 3 3 C3 4.98 3 6.96 3 9 C2.34 8.01 1.68 7.02 1 6 C0.01 6.495 0.01 6.495 -1 7 C-0.67 4.69 -0.34 2.38 0 0 Z " fill="#E0E1E4" transform="translate(62,175)"/>
<path d="M0 0 C0.33 0 0.66 0 1 0 C1.12375 1.051875 1.2475 2.10375 1.375 3.1875 C1.91140782 6.45958771 2.63880035 9.00536076 4 12 C3.01 12 2.02 12 1 12 C-0.3271261 8.0186217 -0.06915913 4.14954773 0 0 Z " fill="#D5D6D9" transform="translate(155,163)"/>
<path d="M0 0 C3.875 4.75 3.875 4.75 5 7 C4.34 7.66 3.68 8.32 3 9 C0.90250005 6.64031256 0.03094296 5.45383006 -0.1875 2.25 C-0.125625 1.5075 -0.06375 0.765 0 0 Z " fill="#9C9DA7" transform="translate(81,140)"/>
<path d="M0 0 C0.99 0.33 1.98 0.66 3 1 C3.3721042 2.32303717 3.70630173 3.65737935 4 5 C4.66 5.33 5.32 5.66 6 6 C5.34 6 4.68 6 4 6 C3.67 6.66 3.34 7.32 3 8 C0 1.125 0 1.125 0 0 Z " fill="#161734" transform="translate(76,116)"/>
<path d="M0 0 C1.98 0 3.96 0 6 0 C6.33 1.32 6.66 2.64 7 4 C4.625 3.6875 4.625 3.6875 2 3 C1.34 2.01 0.68 1.02 0 0 Z " fill="#131636" transform="translate(91,100)"/>
<path d="M0 0 C2.375 0.3125 2.375 0.3125 5 1 C5.66 1.99 6.32 2.98 7 4 C3 4 3 4 0 2 C0 1.34 0 0.68 0 0 Z " fill="#888998" transform="translate(142,95)"/>
<path d="M0 0 C1.98 0 3.96 0 6 0 C6 1.32 6 2.64 6 4 C3.03 3.505 3.03 3.505 0 3 C0 2.01 0 1.02 0 0 Z " fill="#D8D9DB" transform="translate(132,74)"/>
<path d="M0 0 C1.485 0.99 1.485 0.99 3 2 C2.34 4.97 1.68 7.94 1 11 C0.67 11 0.34 11 0 11 C0 7.37 0 3.74 0 0 Z " fill="#F0F1F5" transform="translate(30,41)"/>
<path d="M0 0 C0.66 1.32 1.32 2.64 2 4 C1.34 4.66 0.68 5.32 0 6 C-0.99 6 -1.98 6 -3 6 C-2.625 3.5625 -2.625 3.5625 -2 1 C-1.34 0.67 -0.68 0.34 0 0 Z " fill="#DED9DC" transform="translate(32,37)"/>
<path d="M0 0 C2.97 1.98 2.97 1.98 6 4 C5.67 5.32 5.34 6.64 5 8 C0 2.25 0 2.25 0 0 Z " fill="#D7D8DC" transform="translate(160,164)"/>
<path d="M0 0 C0.33 0.66 0.66 1.32 1 2 C0.22265625 3.9453125 0.22265625 3.9453125 -0.9375 6.125 C-1.31777344 6.84945312 -1.69804688 7.57390625 -2.08984375 8.3203125 C-2.39019531 8.87460938 -2.69054687 9.42890625 -3 10 C-3.66 9.67 -4.32 9.34 -5 9 C-5 6 -5 6 -3.625 4.5 C-3.08875 4.005 -2.5525 3.51 -2 3 C-1.34 2.01 -0.68 1.02 0 0 Z " fill="#E3E5E8" transform="translate(70,149)"/>
<path d="M0 0 C0.99 0.33 1.98 0.66 3 1 C2.67 3.31 2.34 5.62 2 8 C0 6 0 6 -0.125 2.875 C-0.08375 1.92625 -0.0425 0.9775 0 0 Z " fill="#D8DAE0" transform="translate(78,111)"/>
<path d="M0 0 C1.98 0 3.96 0 6 0 C5.67 0.99 5.34 1.98 5 3 C2.69 3.33 0.38 3.66 -2 4 C-1.34 2.68 -0.68 1.36 0 0 Z " fill="#D8D9DB" transform="translate(88,74)"/>
<path d="M0 0 C0.9075 0.226875 1.815 0.45375 2.75 0.6875 C1.76 1.0175 0.77 1.3475 -0.25 1.6875 C-0.25 2.3475 -0.25 3.0075 -0.25 3.6875 C-2.56 3.3575 -4.87 3.0275 -7.25 2.6875 C-4.61280971 0.1517401 -3.74095095 -0.35970682 0 0 Z " fill="#ECE3E3" transform="translate(153.25,20.3125)"/>
<path d="M0 0 C0.99 0 1.98 0 3 0 C3 1.65 3 3.3 3 5 C2.01 5 1.02 5 0 5 C-0.5625 3.0625 -0.5625 3.0625 -1 1 C-0.67 0.67 -0.34 0.34 0 0 Z " fill="#060A30" transform="translate(102,159)"/>
<path d="M0 0 C0.99 0.33 1.98 0.66 3 1 C3 2.98 3 4.96 3 7 C2.34 7 1.68 7 1 7 C0.67 4.69 0.34 2.38 0 0 Z " fill="#EEF0F4" transform="translate(160,142)"/>
<path d="M0 0 C2 0.3125 2 0.3125 4 1 C4.33 1.66 4.66 2.32 5 3 C4.01 3.33 3.02 3.66 2 4 C1.34 4.66 0.68 5.32 0 6 C-0.38218767 4.34385343 -0.71395102 2.67542976 -1 1 C-0.67 0.67 -0.34 0.34 0 0 Z " fill="#9597A0" transform="translate(147,136)"/>
<path d="M0 0 C1.32 0.33 2.64 0.66 4 1 C4 1.66 4 2.32 4 3 C4.99 3 5.98 3 7 3 C7 3.66 7 4.32 7 5 C5.68 5 4.36 5 3 5 C3 4.34 3 3.68 3 3 C2.01 2.67 1.02 2.34 0 2 C0 1.34 0 0.68 0 0 Z " fill="#E2E3E6" transform="translate(136,126)"/>
<path d="M0 0 C2.97 0.495 2.97 0.495 6 1 C4.8125 2.5625 4.8125 2.5625 3 4 C0.3125 3.6875 0.3125 3.6875 -2 3 C-1.34 2.67 -0.68 2.34 0 2 C0 1.34 0 0.68 0 0 Z " fill="#EBE1E1" transform="translate(162,24)"/>
</svg>
